<?xml version="1.0" standalone="no"?>
<!DOCTYPE svg PUBLIC "-//W3C//DTD SVG 1.1//EN" "http://www.w3.org/Graphics/SVG/1.1/DTD/svg11.dtd" >
<svg xmlns="http://www.w3.org/2000/svg" xmlns:xlink="http://www.w3.org/1999/xlink" version="1.1">
<metadata></metadata>
<defs>
<font id="yastribregular" horiz-adv-x="1554" >
<font-face units-per-em="2048" ascent="1638" descent="-410" />
<missing-glyph horiz-adv-x="614" />
<glyph horiz-adv-x="0" />
<glyph unicode="&#xd;" horiz-adv-x="614" />
<glyph horiz-adv-x="0" />
<glyph horiz-adv-x="0" />
<glyph unicode=" "  horiz-adv-x="614" />
<glyph unicode="&#x09;" horiz-adv-x="614" />
<glyph unicode="&#xa0;" horiz-adv-x="614" />
<glyph unicode="!" horiz-adv-x="679" d="M-51 -53q0 47 31.5 78.5t78.5 31.5t79 -31.5t32 -78.5t-32 -79t-79 -32t-78.5 32t-31.5 79zM80 203q61 98 139 225t166 267.5t180 285.5t180.5 282.5t168 259.5t141 214t101.5 146t50 59q31 10 61.5 3.5t54.5 -22.5t36 -42t6 -54q-53 -63 -135 -180t-178.5 -265.5 t-203 -317.5t-211 -338t-199.5 -327.5t-171 -285.5q-33 -27 -68.5 -29t-64.5 13.5t-44 43t-9 62.5z" />
<glyph unicode="&#x22;" horiz-adv-x="1705" d="M473 1249l414 580h215l-541 -580h-88zM840 1249l413 580h215l-540 -580h-88z" />
<glyph unicode="#" horiz-adv-x="1527" d="M94 475l123 199h440l267 440h-443l123 199h443l364 608h209l-365 -608h412l367 608h209l-367 -608h442l-123 -199h-440l-266 -440h440l-121 -199h-442l-383 -633h-211l385 633h-412l-385 -633h-208l383 633h-441zM866 674h414l264 440h-411z" />
<glyph unicode="$" horiz-adv-x="1507" d="M-45 74q10 41 45 70.5t72 29.5q31 0 108 -49q57 -35 80 -41q39 -10 105 -16l354 727q-111 127 -137.5 215t-1.5 200q45 186 215 344t389 199l104 227h101l-101 -213h33q117 0 180.5 -54t50.5 -118q-10 -37 -43.5 -65.5t-70.5 -28.5q-31 0 -49 12q-14 4 -58 56 q-41 47 -108 63l-312 -643q117 -131 150 -235.5t8 -208.5q-47 -203 -231.5 -377t-427.5 -221l-191 -389h-96l180 368q-37 -2 -70 -2q-180 0 -236 42t-42 108zM467 74q162 27 275.5 127t144.5 225q12 70 -0.5 124t-102.5 177zM776 1323q-29 -113 72 -258l282 577 q-147 -31 -238 -118.5t-116 -200.5z" />
<glyph unicode="%" horiz-adv-x="2072" d="M37 1214q20 279 196 520.5t416 241.5q147 0 234.5 -103.5t74.5 -289.5q-23 -313 -233 -555q-166 -195 -375 -194q-147 0 -235 104t-78 276zM211 -158l1257 1985h189l-1256 -1985h-190zM264 1182q-8 -139 29 -206t92 -67q98 0 193 174q133 252 153 543q10 139 -31 217 q-30 58 -79 58q-113 0 -225.5 -224.5t-131.5 -494.5zM967 193q18 279 195 519t419 240q147 0 234.5 -102t72.5 -291q-20 -311 -229 -553q-170 -197 -381 -196q-147 0 -235.5 104t-75.5 279zM1194 158q-10 -139 29 -206t94 -67q98 0 190 174q135 254 156 543q8 139 -33 217 q-31 58 -80 58q-113 0 -225.5 -223.5t-130.5 -495.5z" />
<glyph unicode="&#x26;" horiz-adv-x="1296" d="M-63 565q14 61 69 127t138 134.5t184.5 138t214.5 141.5q-14 76 -17.5 150.5t11.5 142.5q20 88 73.5 164.5t130 134t164.5 92.5t174 35q141 2 224 -83t28 -237q-10 -45 -58 -99t-122 -115.5t-167 -129t-193 -141.5q16 -72 33.5 -146.5t37.5 -148.5q43 33 79 63.5t65 49.5 q18 16 40.5 23t42 4t30.5 -17t7 -41q-43 -49 -102 -107.5t-121 -113.5q23 -102 35 -168t-10 -426q-31 -45 -65 -68.5t-62 -42.5q-31 -10 -62 -18q18 76 16.5 282.5t-22.5 298.5q-127 -98 -264 -164.5t-268 -66.5q-156 4 -240 94t-24 258zM78 371q143 0 304 70.5t302 164.5 q-25 66 -45.5 135.5t-44.5 137.5q-96 -68 -182 -136.5t-159 -133t-118 -124t-57 -114.5zM768 1253q78 55 150.5 109.5t129 106t95.5 100.5t49 98q-76 0 -142.5 -27.5t-123 -66.5t-94.5 -88t-46 -92q-8 -31 -12 -67t-6 -73z" />
<glyph unicode="'" horiz-adv-x="1705" d="M420 1247l414 580h215l-541 -580h-88z" />
<glyph unicode="(" horiz-adv-x="684" d="M7 298q-7 153 51.5 327t157.5 345t228 327.5t267.5 275.5t273.5 188.5t244 65.5q-180 -121 -345 -292t-297 -363.5t-223.5 -393t-128 -381t-10 -326t132.5 -229.5q-180 63 -262 183t-89 273z" />
<glyph unicode=")" horiz-adv-x="612" d="M-305 -158q162 55 304 155.5t259 229.5t209 279.5t153.5 306.5t91 308.5t24.5 287.5t-47 243.5t-124 174.5q174 -131 255 -293t89.5 -337t-46 -353t-151 -340t-223.5 -299t-265 -229.5t-275 -130.5t-254 -3z" />
<glyph unicode="*" horiz-adv-x="940" d="M41 1163q129 78 303 78q37 0 102 -8q-133 158 -256 233q-23 57 7 108.5t102 59.5q129 -100 193 -364q106 174 141 313q61 47 114.5 27.5t77.5 -78.5q-61 -162 -280 -289q174 -51 336 -47q25 -14 39 -40t16 -53.5t-8 -55t-35 -46.5q-174 12 -367 181q4 -133 68 -338 q-23 -66 -77 -85.5t-111 17.5q-10 55 -11 105q0 72 14.5 126t53.5 169q-123 -37 -295 -166q-78 -10 -115 36t-12 117z" />
<glyph unicode="+" horiz-adv-x="974" d="M6 553v199h557l346 567h170l-346 -567h397v-199h-518l-356 -588h-170l356 588h-436z" />
<glyph unicode="," horiz-adv-x="604" d="M1 -333q-1 9 7 16q121 41 182 127q-31 12 -50 39.5t-19 62.5q0 47 31.5 79t78.5 32t79 -32t32 -79q0 -39 -27 -72q-57 -72 -139 -118t-162 -66q-12 2 -13 11z" />
<glyph unicode="-" horiz-adv-x="1228" d="M387 727l64 231h923l-63 -231h-924z" />
<glyph unicode="." horiz-adv-x="221" d="M0 -80q0 47 31.5 79t79.5 32q47 0 78.5 -32t31.5 -79t-31.5 -78.5t-78.5 -31.5t-79 31.5t-32 78.5z" />
<glyph unicode="/" horiz-adv-x="1255" d="M0 -158l1298 2050h189l-1297 -2050h-190z" />
<glyph unicode="0" horiz-adv-x="1212" d="M117 123q0 135 54 313t144.5 368.5t214 375t261 328t284 232.5t281.5 89q86 -4 140 -72.5t63 -200.5q0 -139 -53.5 -323t-146.5 -376.5t-218 -382t-259 -325t-296 -227.5q-227 -123 -342 -66.5t-127 267.5zM252 0q0 -111 57 -111q82 0 187.5 92.5t219 239t227.5 330.5 t201 368.5t142 348.5t55 276q0 43 -13 97.5t-62 54.5q-51 0 -145.5 -95.5t-210 -246t-230.5 -339t-210 -376.5t-156.5 -358t-61.5 -281z" />
<glyph unicode="1" horiz-adv-x="720" d="M-8 -158q14 18 657 1116q217 387 234 437q16 55 -29 55q-39 0 -373 -129l-4 82l858 426h54l-523 -881l-628 -1106h-246z" />
<glyph unicode="2" horiz-adv-x="1327" d="M-240 -166q283 322 672 600q385 274 506 385q176 160 281 297q78 109 108 205q51 147 0 235.5t-168 88.5q-100 0 -217 -71t-278 -251l-68 41q213 258 385 355.5t342 97.5q174 -2 252 -131.5t37 -294.5q-39 -96 -113 -213t-215 -238q-92 -80 -463 -342 q-514 -342 -745 -553h764v-203z" />
<glyph unicode="3" horiz-adv-x="1101" d="M-301 45q12 37 48 63.5t69 26.5q47 0 92 -59q53 -80 86 -101q45 -25 90 -24q127 0 336 147q309 217 407 477q49 131 5 209t-156 78q-80 0 -201 -35l49 99q236 74 467 258q164 129 213 260q37 100 6.5 156.5t-114.5 56.5q-184 0 -428 -205l-50 47q233 188 332 238 q174 90 318 90q147 0 206.5 -76t12.5 -192q-94 -254 -578 -537q127 -6 180.5 -46t63.5 -124t-33 -199q-115 -313 -528 -579q-354 -229 -639 -230q-127 0 -206 57.5t-48 143.5z" />
<glyph unicode="4" horiz-adv-x="1155" d="M-66 408q4 12 66 79q293 313 765 681t953 669h45l-157 -260l-340 -567l-271 -461h248l-94 -170h-250l-305 -539h-227l303 539q-524 4 -670 -4q-20 -2 -31 -2q-47 0 -35 35zM176 549h590q41 82 160 282l379 631q-418 -297 -624 -462.5t-505 -450.5z" />
<glyph unicode="5" horiz-adv-x="1136" d="M-236 -10q12 39 46 66.5t67 27.5q25 0 36 -5t50 -38q51 -43 86 -56.5t94 -13.5q219 0 455 183.5t311 408.5q51 152 4 273q-45 119 -182 184q-57 29 -69.5 56.5t0.5 66.5q16 47 178 311l245 373q43 2 576 2h12l-2 -191h-616q-53 -88 -82 -133t-84 -132t41 -150 q143 -70 191 -134.5t56.5 -164t-26.5 -219.5q-113 -336 -467 -600.5t-682 -264.5q-152 0 -215 49q-45 35 -23 101z" />
<glyph unicode="6" horiz-adv-x="1288" d="M117 -9q-90 171 6 472q113 360 398.5 680.5t643 493.5t746.5 171l-49 -96q-272 -12 -488.5 -100t-399.5 -250t-347 -430q115 76 218 111.5t197 35.5q152 4 224.5 -125t-0.5 -370q-109 -336 -338 -568q-231 -197 -496 -196q-225 0 -315 171zM348 20.5 q41 -112.5 160 -112.5q125 0 237 123q147 158 244 461q78 252 43 356t-133 104q-63 0 -147 -36.5t-193 -108.5q-123 -254 -174 -418q-78 -256 -37 -368.5z" />
<glyph unicode="7" horiz-adv-x="1345" d="M154 -31q41 154 213 361q244 297 1015 1005l285 262h-897l-2 207q88 -2 719 -2q268 0 524 4q-735 -692 -934 -899q-340 -356 -479 -557q-66 -92 -137 -262q-68 -170 -117 -218t-106 -48q-51 0 -77 43t-7 104z" />
<glyph unicode="8" horiz-adv-x="1175" d="M-8 248q10 100 74.5 204.5t181.5 202.5q94 76 414 256q-150 197 -123 402q27 209 206 360.5t410 151.5q172 0 267.5 -93.5t78.5 -222.5q-16 -127 -129 -252q-149 -159 -411 -286q242 -274 210 -516q-31 -236 -252 -424.5t-505 -188.5q-231 0 -337 127t-85 279zM211 256 q-16 -135 64.5 -226t216.5 -91q100 0 199.5 54t167 154.5t79.5 200.5q10 90 -30 199t-187 293q-283 -180 -387.5 -313.5t-122.5 -270.5zM764 1421q-23 -169 135 -362q246 154 327 250t91 176q12 96 -49.5 164.5t-167.5 68.5q-123 0 -221.5 -87t-114.5 -210z" />
<glyph unicode="9" horiz-adv-x="1345" d="M-31 -158l41 95q270 12 478 100t377 248.5t311 429.5q-106 -74 -207 -112t-195 -38q-184 0 -268 131t-29 373q76 334 324 559q215 197 479 197q223 0 326.5 -170t33.5 -471q-80 -358 -340 -680t-603 -494t-728 -168zM767 799.5q44 -103.5 142 -103.5q63 0 144.5 36 t181.5 108q102 254 139 415q57 256 5 369t-169 113q-125 0 -227 -121q-135 -160 -203 -461q-57 -252 -13 -355.5z" />
<glyph unicode=":" horiz-adv-x="497" d="M0 451q0 47 31.5 78.5t79.5 31.5q47 0 78.5 -31.5t31.5 -78.5t-31.5 -79t-78.5 -32t-79 32t-32 79zM324 1106q0 47 31.5 79t78.5 32t79 -32t32 -79t-32 -79t-79 -32t-78.5 32t-31.5 79z" />
<glyph unicode=";" horiz-adv-x="667" d="M1 204q-1 9 7 15q121 41 182 127q-31 12 -50 40t-19 63q0 47 31.5 78.5t78.5 31.5t79 -31.5t32 -78.5q0 -39 -27 -72q-57 -72 -139 -118t-162 -66q-12 2 -13 11zM446 1104q0 47 32 78.5t79 31.5t79 -31.5t32 -78.5t-32 -79t-79 -32t-79 32t-32 79z" />
<glyph unicode="&#x3c;" horiz-adv-x="1507" d="M1 598q3 23 15.5 44.5t31 40.5t36.5 32l1405 491q14 -6 17 -25.5t-8 -47t-34.5 -56t-60.5 -53.5l-1127 -387l764 -387q8 -12 13.5 -34.5t-2 -48.5t-30 -51.5t-65.5 -45.5l-942 491q-16 14 -13 37z" />
<glyph unicode="=" horiz-adv-x="1310" d="M0 244v198h1124v-198h-1124zM186 772v199h1125v-199h-1125z" />
<glyph unicode="&#x3e;" horiz-adv-x="1484" d="M1 174q-1 21 12.5 45.5t39 51t60.5 48.5l1104 369l-715 371q-20 20 -20.5 47t15 53.5t41 47t56.5 28.5l879 -473q10 -8 11 -25.5t-8.5 -39t-30 -44t-52.5 -39.5l-1373 -471q-18 10 -19 31z" />
<glyph unicode="?" horiz-adv-x="1976" d="M-51 -53q0 47 31.5 78.5t78.5 31.5t79 -31.5t32 -78.5t-32 -79t-79 -32t-78.5 32t-31.5 79zM80 143q209 201 465 383q385 274 506 385q176 160 280 297q78 109 109 205q51 147 0 235.5t-168 88.5q-100 0 -217 -71t-279 -251l-67 41q213 258 385 355.5t342 97.5 q174 -2 251.5 -131t36.5 -295q-39 -96 -112.5 -213t-214.5 -238q-92 -80 -463 -342q-514 -342 -746 -553q-16 -14 -36.5 -20t-38 -6t-27.5 8t-6 24z" />
<glyph unicode="@" horiz-adv-x="2107" d="M53 625q45 217 166 434t305.5 395t421 287.5t512.5 109.5q453 0 570 -249q80 -174 30 -402q-53 -262 -245.5 -528t-471.5 -430q-43 -29 -100 -29q-49 0 -95 19.5t-71.5 60.5t-13.5 102q4 20 194 424l-370 -575h-219q-82 0 -37 213q49 236 186 454q152 250 305 250 q84 0 226 -102q4 -4 8 -6l51 71q37 31 81 52.5t86 24.5t78 -14.5t54 -60.5q-57 -76 -197.5 -365.5t-175.5 -449.5q244 156 423 399.5t228 479.5q41 193 -34.5 340t-302.5 190q-43 6 -86 6q-207 0 -429.5 -135t-414 -348t-307.5 -455q-63 -131 -93 -268q-43 -203 8.5 -381 t237.5 -258q109 -41 230 -41q201 0 394 78t292 168q72 68 84 121q18 23 43.5 38t51 18t48 -5t37.5 -33q-96 -203 -405.5 -338t-622.5 -135q-197 0 -353 66q-221 106 -290.5 325t-16.5 482zM870 356l480 693q-129 -18 -225.5 -126t-159 -252.5t-84.5 -256.5z" />
<glyph unicode="A" d="M144 410q-6 27 -6 55q0 33 8 69q16 68 81 115q119 86 294 125q152 34 355 34q31 0 64 -1q25 20 45 45q125 127 254 256t250 247t228.5 220t191.5 177t137 118t65 43q20 0 40 -11.5t35.5 -26.5t23.5 -32.5t8 -27.5q-33 -41 -99.5 -136.5t-152.5 -223.5t-184.5 -281.5 t-196.5 -313.5t-188 -317.5t-160 -293.5t-111 -242.5t-41 -164.5q-55 2 -96 23q-35 16 -64.5 50t-29.5 95q0 20 27.5 83t70.5 148t94.5 179t98.5 180l-209 -6q-129 -160 -237.5 -295t-186.5 -240q-92 -121 -164 -221q-16 0 -46 17.5t-58.5 43t-50 53.5t-21.5 48 q0 12 40 62.5t106.5 126t154.5 170t184 196.5q-16 -4 -30 -8q-109 -25 -198 -57.5t-153.5 -75.5t-85.5 -90q-18 -31 -45.5 -1.5t-41.5 87.5zM1137 786l137 -34q98 182 215.5 350t236.5 332q-156 -162 -294 -313.5t-261 -293.5q-10 -10 -17 -20t-17 -21z" />
<glyph unicode="B" horiz-adv-x="1327" d="M-112 -34.5q3 28.5 18.5 56t34.5 48.5q46 -6 96 -6q51 0 105 6q108 12 220.5 46t225 88t213 123.5t182.5 153.5t135 181q-39 16 -97 16h-13q-68 -2 -141.5 -19.5t-144.5 -46t-120 -63.5q-59 -117 -92 -221.5t-33 -167.5q-47 2 -84 16q-31 12 -56.5 39t-25.5 78t25.5 128 t69 166t98.5 185t114.5 188.5t117 176.5t104.5 147.5t79.5 100t41.5 36.5q23 0 43 -9t36.5 -22.5t26.5 -28.5t10 -26q-29 -37 -64.5 -88t-76.5 -114.5t-85 -134t-87 -146.5q123 55 228.5 129t190.5 156t147.5 168t103.5 168q49 100 49 163q0 8 -1 15q-8 65 -56 89 q-34 17 -81 18q-19 0 -41 -3q-74 -10 -155 -47q-86 -39 -179 -100.5t-182.5 -134t-166 -152.5t-133.5 -157q-58 -78 -88 -148q-24 -56 -25 -99q0 -11 2 -22q0 -35 -39 -24.5t-81 51.5q-41 42 -65 106q-11 29 -11 59q0 38 16 80q53 137 179 264.5t287.5 226.5t281.5 143 t159 54q66 17 140 25q36 4 72 4q38 0 74 -5q72 -9 132.5 -36.5t96.5 -81t41 -135.5q1 -9 1 -19q0 -76 -35 -180q-27 -78 -83 -162.5t-133 -168.5t-168 -162t-189 -141l50 -32t45 -35t34 -45q12 -23 12 -54v-9q-4 -96 -68.5 -195t-168 -192.5t-235.5 -172t-270 -132.5 q-137 -54 -269 -74q-59 -9 -114 -9q-66 0 -124 14q-35 23 -47.5 51.5t-9.5 57z" />
<glyph unicode="C" horiz-adv-x="1617" d="M131 195q0 123 41 262t110.5 282.5t162 284.5t195.5 271t212 241t210 192.5t190 128t153 46.5q25 0 56.5 -12.5t60 -34t49 -48t20.5 -53.5q0 -53 -21.5 -131t-57 -167t-84 -184t-101.5 -187.5t-109.5 -174.5t-107.5 -141q-26 -8 -48 -8q-12 0 -24 3q-32 7 -53.5 26.5 t-31 47t-7.5 56.5q55 66 117.5 148.5t122 172t114 177.5t95.5 163.5t65.5 135t24.5 88.5q-94 -31 -209 -127.5t-233.5 -231.5t-234.5 -299t-211 -328.5t-163 -320.5q-67 -155 -91 -275q-11 -54 -11 -99q0 -54 16 -94q29 -73 125 -73q100 0 204.5 44t208 116t202 164 t184.5 188q203 225 395 512q8 10 20.5 16.5t27 7.5t25.5 -5.5t17 -18.5q-193 -313 -403 -559q-90 -104 -193.5 -204.5t-215 -178t-228.5 -126t-234 -48.5q-68 0 -131 22.5t-112.5 67.5t-79 112t-29.5 153z" />
<glyph unicode="D" horiz-adv-x="1486" d="M8 121q-6 20 -6 40t6 39q12 38 37 62.5t54.5 32.5t52.5 -8q90 -207 229 -225q16 -2 33 -3q127 0 284 125q14 12 72.5 77t141.5 164t181.5 226t192.5 261.5t175 268.5t130 249.5t57 202.5q1 12 2 23q0 70 -46 107q-38 29 -100 29q-12 0 -26 -1q-81 -7 -169 -48 q-86 -39 -179.5 -100.5t-182.5 -134t-165.5 -152.5t-134 -157t-88.5 -147q-24 -55 -24 -98q0 -12 2 -24q0 -35 -39 -25t-81 51q-41 42 -65 106q-11 29 -11 61q0 38 15 79q53 137 179.5 264t288 226.5t281.5 143.5t159 54q47 12 103 19.5t113.5 7.5t112 -8t99.5 -27 q106 -48 134 -146q14 -49 14 -106q0 -58 -14 -123q-28 -131 -101.5 -284.5t-170 -309t-204 -303t-205.5 -268.5t-174 -203t-107 -106q-124 -97 -244 -145q-103 -41 -200 -42q-14 0 -30 2q-110 8 -208 74t-174 199zM385 311q0 53 30.5 135t83 179.5t118 205t136 212 t138 199.5t124 167t94.5 114t46 42q23 0 44.5 -9.5t36.5 -23.5t24.5 -28.5t9.5 -24.5q-43 -55 -111.5 -157.5t-146.5 -227.5t-156 -263.5t-140.5 -265.5t-102.5 -232.5t-40 -166.5q-53 4 -94 20q-35 14 -64.5 43t-29.5 82z" />
<glyph unicode="E" horiz-adv-x="1486" d="M0 180q0 96 68.5 193.5t174 186.5t232.5 166t241.5 133t202 90t115.5 36q-113 16 -200 59q-37 18 -73 45t-63.5 64t-45 84t-17.5 106q0 113 67.5 211.5t177 173t246 124t274.5 65.5q58 7 114 7q77 0 150 -13q126 -22 212 -88q-10 -6 -35.5 -37t-57.5 -78t-66 -105.5 t-61.5 -118t-43.5 -115.5q-11 -39 -10 -71q0 -15 2 -28q-82 46 -104 106q-13 36 -12 73q0 25 6 53q15 66 58 134t93 123q-147 -33 -300 -93t-279 -138t-207 -168t-83 -182q45 -53 111.5 -80t140.5 -36q61 -7 119 -7h25q70 2 124 8q20 -10 33.5 -31.5t17 -47.5t-6 -52.5 t-33.5 -46.5q-121 -47 -254 -111.5t-262 -141.5t-246 -161t-206 -167t-142.5 -163t-53.5 -147q33 -10 77 -10q16 0 32 1q64 5 141.5 26.5t159.5 54t162 73.5t152.5 85t129.5 87q27 6 48.5 -13t31.5 -51q7 -21 7 -45q0 -12 -2 -24q-5 -37 -31 -65q-74 -61 -173.5 -111.5 t-205 -86.5t-208 -55.5t-179.5 -19.5q-35 0 -83 18.5t-93.5 58.5t-77 104.5t-31.5 158.5z" />
<glyph unicode="F" horiz-adv-x="1212" d="M150 722q2 38 26.5 75t69.5 61q72 10 148 13q46 2 93 2q31 0 62 -1q70 127 145.5 253t152.5 243t148.5 219.5t130.5 184.5q-86 -39 -179 -100.5t-182 -134.5t-166 -152.5t-134 -156.5q-57 -78 -88 -148q-25 -56 -25 -100q0 -11 2 -22q0 -35 -39 -24.5t-80.5 51.5 t-65.5 105q-11 29 -11 61q0 38 16 80q53 137 179 264t288 227q161 99 363 173q148 54 315 54q61 0 125 -7q-35 -61 -85 -144.5t-108.5 -179.5t-122 -200.5t-124 -205t-114.5 -192.5t-93 -164q139 -16 246.5 -37.5t156.5 -32.5q10 -10 12 -19t2 -19t-4 -21q-66 2 -145 2 q-68 0 -157 -3t-187 -13q-43 -82 -88 -192.5t-87 -225.5t-75 -222.5t-47 -185.5q-27 -25 -58.5 -36t-62.5 -10t-58.5 14.5t-45.5 38.5q0 57 21.5 153t57 204.5t78.5 219.5t86 197q-117 -23 -217 -62q-41 14 -59 46q-16 28 -17 61q1 4 1 9z" />
<glyph unicode="G" horiz-adv-x="1605" d="M145 190q0 123 41 262.5t111 283t162 285.5t195.5 271t212 241t210 193.5t190.5 128t152 46.5q27 0 58.5 -8.5t60.5 -27t48.5 -46t19.5 -66.5q0 -66 -28 -163t-74 -208.5t-105.5 -226.5t-120.5 -215q-37 -39 -80 -50q-22 -6 -41.5 -6t-37.5 6q-36 11 -57 40 q-15 21 -15 50q0 10 2 21q80 102 159.5 222t144 230t105.5 197t41 128q-55 0 -133 -52.5t-166 -140.5t-183 -206.5t-187.5 -251t-176.5 -273.5t-149.5 -273t-108.5 -251t-53 -207q-3 -23 -3 -44q0 -58 21 -97q27 -52 103 -52q86 0 187.5 58.5t207 149.5t207.5 204t192 221 q27 12 61 13.5t62.5 -10t49 -37t22.5 -64.5q-53 -59 -96 -134t-71 -157t-37 -167q-3 -31 -3 -61q0 -53 10 -104q-72 18 -121 52t-74.5 78t-27.5 96v9q0 48 21 97q-147 -158 -284.5 -248t-270.5 -90q-68 0 -131.5 22.5t-112.5 67.5t-79 111.5t-30 152.5z" />
<glyph unicode="H" horiz-adv-x="1486" d="M202 744q18 38 48 69q74 12 154 15q48 2 95 2q32 0 64 -1q72 131 151 261.5t157.5 250t152.5 226t135 190.5q-86 -37 -179 -98.5t-182 -134t-166 -152.5t-134.5 -156.5t-87.5 -147.5q-24 -56 -25 -100q0 -11 2 -22q0 -35 -39 -24.5t-81 51.5q-41 41 -65 105 q-11 29 -11 61q0 38 16 80q53 137 179 264t288 226t342 160.5t340 69.5q64 1 78 -27q8 -14 7 -33q-1 -17 -7 -36q-14 -41 -40 -86t-44 -76q-55 -100 -123 -205.5t-137.5 -216t-139 -223t-131.5 -227.5q94 -10 176 -23.5t146 -27.5q59 111 120.5 223.5t119 214.5t107.5 191.5 t90 154t65.5 102t33.5 37.5q31 0 59.5 -5t50 -17t34 -34.5t10.5 -55.5q-35 -43 -87 -126t-113.5 -192.5t-128 -237.5t-131 -262.5t-123 -267.5t-103.5 -249.5t-70.5 -213t-25.5 -155.5q-55 4 -99 26q-37 16 -67.5 52.5t-30.5 95.5q0 47 19.5 115.5t52 152.5t78 179.5 t98.5 195.5q-72 0 -163 -5t-196 -15q-43 -84 -88 -186.5t-83 -208t-68.5 -206t-46.5 -180.5q-31 -25 -65 -34q-28 -7 -55 -7h-11q-32 2 -59 13.5t-44 29.5q0 59 19.5 148.5t52.5 190t74 203.5t84 193q-53 -10 -104.5 -24t-98.5 -31q-34 12 -50 42q-15 28 -15 61q0 37 19 78z " />
<glyph unicode="I" horiz-adv-x="841" d="M154 1074q-11 29 -10 60q0 38 16 80q53 137 179 264.5t287.5 226.5t342 160.5t340.5 69.5q47 5 55 -17q3 -9 3 -19q0 -19 -8 -45q-13 -42 -41.5 -94t-53.5 -103q-66 -115 -149 -255t-171 -295t-175 -317.5t-163 -322.5t-131 -311.5t-82 -282.5q-18 -16 -44.5 -26.5 t-55.5 -13.5t-55.5 4t-44.5 30q0 102 47 253.5t123.5 327t176 362.5t202 363.5t199.5 328t173 253.5q-88 -39 -181 -100.5t-182 -134t-166 -152.5t-135 -156q-58 -77 -88 -148q-24 -56 -24 -100q0 -11 2 -22q0 -35 -39 -24.5t-81 51.5t-66 105z" />
<glyph unicode="J" horiz-adv-x="1034" d="M0 33q0 63 30.5 144t87 167t135.5 171t173 156.5t202.5 124t223.5 72.5q100 150 191.5 298.5t161 272.5t111.5 213t42 120q-96 -47 -199.5 -115t-202 -149t-183.5 -169t-148.5 -173t-96.5 -162q-28 -63 -28 -113q0 -12 2 -23q0 -39 -43 -27.5t-89 57.5t-73 116 q-13 33 -13 69q0 41 17 86q59 152 198.5 293.5t318.5 251t326.5 159.5t237.5 71q26 5 47 5q26 0 46 -7q36 -15 54.5 -46.5t20.5 -77.5v-15q0 -39 -8 -81q-14 -66 -64.5 -181.5t-125 -259.5t-167.5 -307t-196.5 -322.5t-212 -306t-210 -258.5t-192.5 -178.5t-161 -66.5 q-35 0 -73 18.5t-68.5 46t-51 61.5t-20.5 65zM194 133q-5 -35 13 -35q33 0 94 55.5t139 148.5t168 215t180 257q-106 -55 -196 -125.5t-161 -145.5t-122 -147.5t-80.5 -130t-34.5 -92.5z" />
<glyph unicode="K" horiz-adv-x="1892" d="M26 1004q-12 32 -12 68q0 41 17 87q59 152 198.5 293t318.5 250.5t378.5 178.5t378.5 77q31 -2 43 -16.5t3.5 -46t-37 -87t-77.5 -141.5q-94 -164 -208 -349t-224 -382q63 41 145 103.5t170 138t177 158.5t167 163t137.5 151.5t92.5 125.5q50 22 94 22q19 0 36 -4 q58 -14 83 -90q-31 -59 -110 -141t-183.5 -173.5t-224 -185.5t-233.5 -175t-211 -143.5t-154 -88.5q57 -156 142 -319t193.5 -299t239.5 -226t283 -98q-135 -95 -251 -101q-10 0 -20 -1q-104 -1 -192 51q-96 56 -176 162t-141.5 232t-107.5 260t-77 247q-43 -82 -91 -187.5 t-93 -215t-80 -213t-49 -179.5q-29 -27 -60.5 -39t-62.5 -9t-57.5 19.5t-40.5 46.5q0 102 48 249t128 317t180 350t204.5 350t203 317.5t173.5 249.5q-96 -47 -199.5 -114.5t-201.5 -148.5t-183 -169t-148.5 -173t-97.5 -163q-28 -63 -28 -113q0 -12 2 -22q0 -39 -43 -27.5 t-89.5 57.5t-72.5 116z" />
<glyph unicode="L" horiz-adv-x="1650" d="M118 -182.5q-3 26.5 5 61.5t26.5 68t43.5 41q53 19 186 35q-27 37 -39 79q-8 28 -8 57q0 15 2 31q10 98 62.5 226.5t128 267.5t168.5 285.5t519 750.5q-123 -45 -226 -112.5t-201.5 -148.5t-183.5 -169t-149 -173q-62 -85 -96 -163q-27 -63 -28 -112q0 -12 2 -23 q0 -39 -43 -27.5t-89 57.5q-46 47 -73 117q-13 33 -13 68q0 41 17 86q59 152 198.5 293t318.5 251t379 178.5t378 76.5q33 0 59.5 -15.5t44 -39t20.5 -48t-11 -42.5q-53 -39 -137.5 -148.5t-192 -267.5t-205.5 -328t-189.5 -346t-160 -336t-92.5 -272q163 31 325 42 q78 5 148 5q77 0 147 -6q59 -10 97 -56.5t58 -100.5q16 -45 16 -83q0 -8 -1 -16q-4 -45 -31 -47q-18 20 -90 34q-72 13 -174 19q-68 4 -145 4q-39 0 -80 -1q-123 -3 -245 -11.5t-233.5 -23.5t-189.5 -38q-20 -6 -23 20.5z" />
<glyph unicode="M" horiz-adv-x="1957" d="M90 1072q-11 29 -11 62q0 38 15 78q53 137 179 264.5t288 226.5t342 160.5t340 69.5q33 2 43 -17.5t3 -56t-30.5 -88t-60.5 -112.5q-86 -150 -189.5 -319t-206 -348t-193.5 -362.5t-148 -361.5q297 453 534 811q100 154 199.5 300.5t179.5 263t133.5 189.5t65.5 77 q37 15 73 15h5q39 -1 68.5 -18.5t48 -51t18.5 -80.5q0 -4 -35 -73t-89 -176.5t-123 -244.5t-135.5 -278.5t-124.5 -277.5t-95 -243q37 55 96 144.5t132 197t153 228t158.5 238.5t151.5 225.5t130 191.5t94 135t43 57q22 18 56 24q12 2 24 1q21 0 41 -6q31 -10 51 -40 q16 -25 16 -63q0 -8 -1 -16q-109 -201 -213.5 -414t-197.5 -418.5t-172 -394t-136.5 -339t-90 -253t-32.5 -137.5q-57 2 -103 19q-39 14 -70.5 42.5t-31.5 84.5q0 51 32 146t83 216t117.5 257t135 271.5t135 259.5t118 220t83 154.5t31.5 62.5q-4 0 -51 -69.5t-123 -182.5 t-169 -254t-189 -283.5t-185.5 -271.5t-156.5 -219q-23 0 -54.5 14.5t-59.5 36t-47 46t-19 42.5q0 49 25.5 132t68.5 185.5t98 218t113 228.5q133 264 305 569q-246 -365 -469 -706q-96 -145 -195.5 -301t-191.5 -306.5t-172 -287.5t-135 -246q-37 -31 -81 -41 q-26 -6 -51 -6q-18 0 -35 3q-42 7 -74 30.5t-44 60.5q0 102 47 245.5t125 307.5t176 339t200.5 340t201 308.5t174.5 247.5q-88 -41 -181.5 -102.5t-182.5 -134t-166 -152.5t-134 -156.5t-88 -147.5q-25 -56 -24 -100q0 -11 1 -22q0 -35 -38.5 -24.5t-80 51.5t-65.5 105z " />
<glyph unicode="N" horiz-adv-x="1503" d="M169 1086q-11 29 -11 61q0 38 16 80q53 137 179 264t288 226.5t342 161t340 69.5q31 2 41 -19.5t3 -58.5t-29.5 -89t-57.5 -112q-86 -150 -190.5 -319.5t-207 -350t-194.5 -365.5t-149 -364q299 453 540 809q102 152 202.5 298.5t182.5 263t136.5 189.5t64.5 79 q35 18 72 18t66.5 -16.5t48 -49t18.5 -77.5q0 -4 -37 -83t-98.5 -206t-139 -292t-159.5 -341t-160 -351t-139.5 -325.5t-98.5 -264.5t-37 -165q-25 0 -59.5 6.5t-67 22.5t-56 46t-23.5 77q0 55 36.5 164.5t97 251t138.5 305.5t158 325q188 381 432 826q-287 -420 -531 -795 q-104 -160 -208.5 -325.5t-194.5 -318.5t-159.5 -282t-104.5 -217q-57 8 -103 35q-39 23 -69.5 67t-30.5 122q0 82 43 211t114.5 283.5t164 323.5t189.5 329.5t191.5 304t169.5 247.5q-88 -37 -181 -98t-182 -134t-166 -153t-134 -156q-57 -78 -88 -148q-25 -56 -25 -100 q0 -11 2 -22q0 -35 -39 -24.5t-80.5 51.5t-65.5 105z" />
<glyph unicode="O" horiz-adv-x="1456" d="M211 133q0 78 17 165t48 179q-61 103 -61 232q-1 19 1 39q10 152 78 309t182 308t251 269.5t288.5 190t293.5 71.5q88 -2 149.5 -22.5t98 -57t53 -88t16.5 -112.5q0 -147 -48 -333.5t-131 -381t-197.5 -381t-247 -333t-277.5 -235.5t-291 -89q-106 10 -164.5 78.5 t-58.5 191.5zM397 760q59 115 128 221t145 201q23 11 46 11q10 0 20 -2q32 -7 56 -31q24 -23 34 -60q5 -17 4 -34q0 -21 -7 -44q-86 -115 -163.5 -247t-135.5 -269q-59 -136 -90 -270q-22 -94 -22 -179q0 -35 4 -69q133 57 265 178t250 277.5t217 337t168 357.5 q70 176 104 338q25 119 25 216q0 34 -3 65q-115 0 -227.5 -43t-217 -116.5t-197.5 -173t-171 -210t-137.5 -227t-94.5 -227.5z" />
<glyph unicode="P" horiz-adv-x="1466" d="M162 14q0 43 37 133.5t97 207t139 251.5t163 269.5t167 260.5t153 222q29 14 55 14q7 0 13 -1q32 -5 54.5 -25.5t30.5 -50t-2 -60.5q-76 -111 -163 -245t-175 -279q150 27 282 82t244.5 127.5t203.5 158.5t161 176q102 145 116 260q2 20 2 38q0 87 -54 137 q-61 58 -188 58h-13q-137 -3 -336 -93q-86 -39 -179 -100.5t-182.5 -134t-166 -152.5t-134 -157t-87.5 -147q-24 -56 -25 -100q0 -11 2 -22q0 -35 -39 -25t-81 51q-41 42 -65 106q-10 28 -11 58q0 40 18 86q51 109 153.5 215.5t234.5 200.5t284.5 171t302.5 125t290 64 q51 6 98 5q82 0 150 -17q108 -27 171 -101.5t63 -207.5q0 -125 -62.5 -254t-167 -251t-241 -227.5t-285 -181t-298.5 -112.5q-108 -27 -206 -27q-37 0 -72 4q-61 -96 -115.5 -195.5t-94 -191.5t-62.5 -169t-23 -126q-45 4 -79 25q-29 16 -53.5 51t-24.5 96z" />
<glyph unicode="Q" horiz-adv-x="1939" d="M162 133q0 78 17.5 165t47.5 179q-61 103 -61 232q0 19 2 39q10 151 77.5 308.5t181.5 308.5t251 269.5t288.5 190t293.5 71.5q88 -2 149 -22.5t98 -57t53.5 -88t16.5 -112.5q0 -143 -46 -325.5t-127 -374t-190.5 -375t-238.5 -330.5q-29 -31 -58.5 -58.5t-58.5 -54.5 q152 -31 262 -40q72 -6 136 -6q36 0 70 2q95 5 170 25.5t108 59.5q29 23 45 -14q12 -28 12 -69q0 -13 -1 -26q-5 -59 -40 -118t-113 -84q-101 -34 -223 -34q-46 0 -94 4q-178 18 -350 77q-106 39 -189 76q-152 -88 -266 -88q-106 10 -164.5 78.5t-58.5 191.5zM348 760 q59 115 128 221t145 201q23 11 46 11q10 0 19 -2q33 -7 56.5 -30.5t33.5 -60.5q5 -17 5 -34q0 -22 -7 -44q-86 -115 -164 -247t-136 -269t-89 -270q-22 -95 -22 -179q0 -35 4 -69q133 57 265 178t249.5 277.5t217 337t169 357.5t103.5 338q25 120 25 216q0 34 -3 65 q-115 0 -227.5 -43t-217 -116.5t-198 -173t-171 -210t-137 -227t-94.5 -227.5z" />
<glyph unicode="R" horiz-adv-x="1816" d="M33 14q0 43 36.5 133.5t97 207t139.5 251.5t163 269.5t167 260.5t152 222q29 14 55 14q7 0 14 -1q32 -5 54.5 -25.5t30.5 -50t-2 -60.5q-76 -111 -163 -245t-175 -279q150 27 282 82t244.5 127.5t203.5 158.5t161 176q101 145 115 260q2 20 3 38q1 87 -53 137 q-61 58 -189 58h-13q-137 -3 -336 -93q-86 -39 -179 -100.5t-182.5 -134t-166 -152.5t-134.5 -157t-88 -147q-24 -56 -24 -100q0 -11 2 -22q0 -35 -39 -25t-81 51q-42 42 -66 106q-10 28 -10 58q0 40 18 86q51 109 153.5 215.5t234.5 200.5t284.5 171t303 125t290.5 64 q51 6 97 5q81 0 149 -17q108 -27 171.5 -101.5t63.5 -207.5q0 -115 -53.5 -234.5t-144.5 -233.5t-212 -216.5t-255 -181t-273.5 -128t-268.5 -57.5q63 -102 154.5 -190t202 -153.5t238.5 -105.5t270 -48q-133 -94 -249 -116q-50 -9 -97 -9q-61 0 -117 16q-98 29 -181 97.5 t-149 154.5t-116 180t-83 174q-61 -96 -115.5 -195.5t-93 -190.5t-61.5 -168t-23 -126q-45 4 -79 25q-29 16 -53.5 51t-24.5 96z" />
<glyph unicode="S" horiz-adv-x="1308" d="M0 117q2 33 61.5 60.5t152.5 56t215 69.5t245 94q-57 41 -139 108.5t-156 149.5t-126 168q-48 80 -48 153v11q6 104 72.5 208.5t167 200t224.5 180.5t248.5 150.5t237.5 111.5t199 60q78 -4 112.5 -46t40.5 -142q-4 -84 -35.5 -171t-83 -173t-109.5 -168t-122 -158 q-143 -174 -262 -342q-24 -3 -46 -3q-45 -1 -79 13q-51 20 -82 57.5t-40 86.5q-4 21 -4 42q0 28 7 54q57 18 132 76.5t155 137.5t156.5 172t139 178t102.5 152t42 105q-68 -12 -169 -51t-216.5 -98t-230.5 -135t-211 -159t-155.5 -170t-65.5 -167v-5q0 -31 22 -70 q24 -42 60.5 -81.5t88.5 -80.5t105 -74q121 -82 285 -158q33 -39 46 -81t17 -77q2 -17 2 -34q0 -25 -4 -49q-94 -129 -198.5 -217.5t-205.5 -139.5q-102 -52 -191 -74q-76 -19 -134 -19q-10 0 -20 1q-68 37 -108 86t-60 92q-25 55 -35 109zM254 115.5q-27 -19.5 14 -23.5 q7 0 13 -1q45 1 101 13q64 14 127.5 43t120 75t95.5 108q-104 -51 -203.5 -93t-170 -72t-97.5 -49.5z" />
<glyph unicode="T" horiz-adv-x="1243" d="M121 1593q0 45 11 91.5t33.5 84t56.5 64.5t77 33q72 10 192.5 16t270.5 7h103q105 0 218 -1q170 -2 340 -6t329 -10t286 -13.5t213.5 -13.5t111.5 -12q10 -10 13.5 -19.5t3.5 -19.5t-4 -20q-98 0 -219 -5q-104 -4 -246 -8t-314 -14q-37 -51 -95 -147.5t-128.5 -221.5 t-147.5 -270t-152 -295.5t-142.5 -299t-117.5 -278t-81 -231.5t-31 -162h-9q-47 0 -85 19q-35 16 -64.5 54t-29.5 116q0 72 46 200.5t121 286.5t170 333t192.5 340t187.5 307t155 235q-147 -10 -303.5 -22.5t-318.5 -28t-325 -37t-318 -52.5z" />
<glyph unicode="U" horiz-adv-x="1683" d="M204 1072q-11 29 -11 60q0 38 16 80q53 137 179 264.5t288 226.5t342 160.5t340 69.5h7q48 0 48 -45q0 -8 -1 -16q-9 -64 -95 -203q-76 -123 -162 -260t-172 -284.5t-168 -300t-147.5 -305t-110.5 -301t-57 -286.5q29 4 75 45t104 112t128 165t144.5 204.5t153.5 231.5 t157 244q272 432 591 979q36 20 67 20q5 -1 10 -1q36 -4 61.5 -23t39 -47.5t7.5 -55.5q-37 -68 -91.5 -175t-120 -238t-136 -279.5t-139 -299t-131 -295t-109.5 -267.5t-75 -218t-28 -147q-25 0 -59.5 6.5t-66 22.5t-55 46t-23.5 77q0 31 26.5 115t65.5 187t78.5 205.5 t68.5 168.5q-106 -172 -213.5 -330t-206 -278.5t-182.5 -192.5t-145 -72q-57 8 -103 35q-39 23 -69.5 67t-30.5 122q0 102 43 238t114.5 290t163 315.5t187.5 314t190 290t170 241.5q-86 -41 -179 -102.5t-182 -134t-166 -152.5t-134.5 -156.5t-87.5 -147.5 q-24 -56 -25 -100q0 -11 2 -22q0 -35 -39 -24.5t-80.5 51.5t-65.5 105z" />
<glyph unicode="V" horiz-adv-x="1179" d="M186 1074q-11 29 -11 62q0 38 15 78q53 137 179.5 264.5t288 226.5t342 160.5t339.5 69.5q33 2 42.5 -20.5t1 -60t-31 -87t-53.5 -102.5q-96 -168 -214.5 -360.5t-231.5 -396t-206 -409.5t-138 -399q72 92 171 245t217 331t252 367.5t274.5 359.5t284.5 303t286 199 q18 6 34.5 -0.5t26.5 -18.5t12 -28.5t-4 -30.5q-133 -84 -268 -214t-266 -284.5t-254 -324.5t-230 -336q-254 -387 -487 -826q-80 6 -141 33q-53 23 -96.5 67t-43.5 121q0 102 43 239.5t115 291.5t163 315.5t187.5 315t190.5 290t170 240.5q-88 -39 -181.5 -100.5 t-182.5 -134t-165.5 -152.5t-134 -156.5t-88.5 -147.5q-24 -55 -24 -98q0 -12 2 -24q0 -35 -39 -24.5t-80.5 51.5t-65.5 105z" />
<glyph unicode="W" horiz-adv-x="1812" d="M284 1072q-11 29 -11 60q0 38 16 80q53 137 179 264.5t288 226.5t342 160.5t340 69.5h9q57 0 57 -42q0 -7 -2 -15q-12 -61 -107 -217q-86 -150 -189.5 -319t-206 -348t-193.5 -362.5t-149 -361.5q297 451 537 807q102 152 201.5 298.5t179.5 262t133 188t64 77.5 q35 15 70 15h4q38 -1 68 -17.5t48 -48t18 -76.5q0 -4 -36.5 -80t-96 -199t-136.5 -281.5t-155.5 -328.5t-154.5 -339t-135 -313q70 113 163 263.5t201.5 317.5t229 337t244.5 322.5t249 276.5t244 196q27 14 58.5 13t59 -11.5t44 -27.5t12.5 -36q-133 -72 -269.5 -193.5 t-268.5 -274t-257 -324.5t-235 -340q-260 -395 -500 -850q-23 0 -65.5 21.5t-84.5 54t-73 68.5t-31 67q0 55 34 155.5t88 227.5t124 270t143 285q172 332 391 718q-285 -416 -526 -788q-102 -160 -206.5 -324.5t-194.5 -317.5t-160 -282t-102 -215q-57 6 -103 33 q-39 23 -69.5 67t-30.5 121q0 82 43 211t114.5 283t162.5 322t187.5 327.5t190.5 302t170 244.5q-88 -39 -181 -100.5t-182 -134t-166 -152.5t-134.5 -156.5t-87.5 -147.5q-24 -56 -25 -100q0 -11 2 -22q0 -35 -39 -24.5t-80.5 51.5t-65.5 105z" />
<glyph unicode="X" horiz-adv-x="1439" d="M66 33q0 33 36.5 91t103 136t157 170t197 193.5t224 209t238.5 214.5q72 186 155 366t166 340q-88 -39 -181 -100.5t-182 -134t-166 -152.5t-134 -156.5t-88 -147.5q-25 -56 -25 -100q0 -11 2 -22q0 -35 -38.5 -24.5t-80.5 51.5t-66 105q-11 29 -11 61q0 38 16 79 q53 137 179 264.5t288 226.5t342.5 160.5t411.5 67.5q-12 -27 -33 -74t-46.5 -104t-52 -119.5t-51 -121t-45 -106.5t-32.5 -75q139 119 262 222.5t215 181.5q109 90 201 163q33 0 59.5 -15t45.5 -36.5t29.5 -45t10.5 -40.5q-86 -74 -199.5 -172t-244 -211.5t-269.5 -239.5 t-276 -255q-92 -268 -147.5 -532.5t-55.5 -506.5q-57 2 -100 25q-39 20 -70 65.5t-31 131.5q0 106 22.5 238t63.5 280q-127 -123 -235.5 -238t-188.5 -211t-126 -172t-46 -119q-25 0 -59.5 12.5t-66 36t-55 58.5t-23.5 82z" />
<glyph unicode="Y" horiz-adv-x="1536" d="M186 1074q-11 30 -11 62q0 37 15 78q53 137 179.5 264.5t288 226.5t341.5 160.5t340 69.5h8q42 0 57 -19q15 -20 5 -56.5t-40 -87t-69 -105.5q-127 -184 -241.5 -356t-205.5 -327t-152.5 -292t-79.5 -254q43 6 118.5 73t168.5 171t198.5 235.5t208.5 268.5 q242 319 520 723q39 25 77 27h7q33 0 57 -14q27 -15 40 -46q7 -18 7 -40q0 -16 -4 -34q-63 -104 -138 -244.5t-157 -298t-170 -323.5t-177 -323.5t-178 -298t-174 -245t-165 -166t-149 -61.5q-27 0 -57.5 10.5t-57.5 32t-44 53t-17 74.5q63 0 144 63.5t172 170t187.5 246 t189.5 293t182 310t163 296.5q-76 -113 -160 -234t-172 -236.5t-176 -220t-169 -182.5t-153.5 -124t-130.5 -46q-45 8 -80 33q-29 23 -53 65.5t-24 120.5q0 84 46 199t116.5 238.5t154.5 247.5t161 227.5t135 177.5t77 98q-88 -39 -181.5 -100.5t-182.5 -134t-165.5 -152.5 t-134 -156.5t-88.5 -147.5q-24 -55 -24 -98q0 -13 2 -24q0 -35 -39 -24.5t-81 51.5t-65 105z" />
<glyph unicode="Z" horiz-adv-x="1843" d="M202 1044q-11 29 -11 60q0 38 16 80q53 137 179 264t288 226.5t363.5 173t381.5 73.5q55 0 102.5 -22.5t82 -58.5t54 -82t19.5 -95q0 -20 -40 -85t-107.5 -160t-157.5 -215t-190 -253q129 -16 229 -34.5t148 -26.5q10 -10 12 -20.5t2 -20.5t-2 -21q-68 2 -148 2 q-68 0 -157.5 -4t-190.5 -14q-88 -115 -178 -229.5t-174 -224t-160 -207t-135 -177.5q324 164 569 217q103 23 201 25h11q91 0 158 -34q71 -37 107 -117q24 -54 25 -135q0 -40 -6 -87q-41 76 -131 105.5t-204 29.5t-235.5 -21.5t-224 -46t-173 -46t-81.5 -21.5 q-23 0 -52.5 18.5t-56 50.5t-45 74t-18.5 87q39 57 96.5 135t125 168t143.5 190.5t156 202.5q-94 -23 -183.5 -53.5t-160.5 -73.5q-5 29 -5 57q0 26 4 52q9 54 30.5 97.5t54 73t73.5 35.5q84 12 170 16q55 2 109 2l63 -1q113 147 217.5 282.5t184.5 242t128 176t48 81.5 q-56 35 -123 35q-34 0 -72 -9q-111 -27 -258 -95l-94 -62q-92 -61 -181 -134t-166 -153t-134.5 -156.5t-87.5 -146.5q-24 -56 -25 -101q0 -12 2 -22q0 -35 -39 -24.5t-80.5 52t-65.5 105.5z" />
<glyph unicode="[" horiz-adv-x="2152" d="M0 -180l1337 2119h715q82 -43 96.5 -101t-30.5 -103h-668l-1079 -1710h577q45 -45 31 -103.5t-96 -101.5h-883z" />
<glyph unicode="\" horiz-adv-x="1515" d="M0 1909h203l1313 -2073h-205z" />
<glyph unicode="]" horiz-adv-x="2152" d="M4 -78.5q-14 58.5 31 103.5h667l1080 1710h-578q-45 45 -30.5 103t96.5 101h882l-1337 -2119h-715q-82 43 -96 101.5z" />
<glyph unicode="^" horiz-adv-x="849" d="M0 940l676 471h174l-127 -471h-160l37 287l-440 -287h-160z" />
<glyph unicode="_" horiz-adv-x="1929" d="M0 -156h1929v-188h-1929v188z" />
<glyph unicode="`" horiz-adv-x="376" d="M0 1829h248l129 -299h-121z" />
<glyph unicode="a" horiz-adv-x="987" d="M-248 25q0 55 41 148t105.5 200.5t145.5 218t163 200t156.5 145.5t123.5 56q43 0 77 -12t57.5 -30.5t38 -37t22.5 -30.5q39 51 54.5 78.5t29.5 31.5q27 10 56.5 10.5t53.5 -13.5t36 -40q7 -15 7 -35q0 -15 -4 -32q-41 -74 -97 -171.5t-116.5 -200.5t-121 -205.5 t-107.5 -185.5t-76.5 -138.5t-29.5 -63.5q2 0 33.5 29.5t80.5 79t110.5 113t127.5 128.5q150 153 340 350q23 16 44 17.5t32 -17.5q-168 -182 -318 -339q-63 -68 -129.5 -135.5t-128 -127t-114 -106.5t-87.5 -72q-16 0 -44.5 13.5t-57.5 35t-50.5 49t-21.5 54.5q0 14 15 53 q-59 -68 -120 -122t-118 -83q-13 -1 -25 -1q-56 -1 -90 15q-41 18 -62.5 47t-26.5 64t-5 62zM-51 -82q49 33 103 85t108.5 116.5t109 136.5t103.5 139q68 123 142.5 243t139.5 210q-63 -2 -140 -59.5t-155.5 -146.5t-153.5 -197.5t-132.5 -212t-92 -187.5t-32.5 -127z" />
<glyph unicode="b" horiz-adv-x="991" d="M-295 -12q0 25 49 118t130 229t185.5 303t214 338t215 332.5t191.5 288.5t142.5 206t66.5 85q29 16 60.5 17.5t56 -12t38.5 -41.5q10 -20 11 -48q0 -11 -2 -24q-25 -35 -79 -114t-125 -183.5t-150.5 -224t-156.5 -236.5t-142.5 -220.5t-108.5 -174.5q37 39 98.5 102.5 t125 122.5t118.5 102t80 43q29 0 62.5 -16t62.5 -41t47 -50.5t18 -43.5q0 -39 -36.5 -139.5t-100 -225.5t-147.5 -255t-176 -228q35 33 78.5 78t93 95t100.5 103.5t100 102.5q113 117 234 241q23 16 44 17.5t32 -17.5q-168 -182 -318 -339q-63 -68 -129.5 -135.5t-128 -127 t-114 -106.5t-87.5 -72q-79 -23 -139 -23q-25 -1 -47 3q-74 14 -119 45t-63.5 62.5t-16.5 35.5q106 0 203.5 70.5t182.5 176t154 229.5t116 229.5t71 175.5q19 56 18 68q0 3 -1 3q-6 0 -45 -36.5t-96.5 -94t-127 -128t-135 -139.5t-121 -126t-83.5 -88q-84 -145 -146.5 -267 t-89.5 -198q-17 -1 -32 -1q-34 0 -57 6q-34 9 -51.5 29.5t-22.5 50.5t-5 67zM367 -82q2 2 6 4t6 5t6 7zM391 -59q4 4 10.5 9t10.5 9z" />
<glyph unicode="c" horiz-adv-x="753" d="M-258 41q0 53 41 144t105.5 195.5t145.5 212t161.5 194.5t153.5 142.5t122 55.5q43 0 72.5 -10t52.5 -21q-16 -20 -26.5 -68t-17.5 -111.5t-10 -135.5t-3 -139q-47 0 -72 22t-34 56q-7 27 -7 60v15q2 41 12 78q-90 -84 -180 -206t-160.5 -247.5t-113.5 -235.5 q-38 -97 -38 -154q0 -8 1 -15q22 -7 44 -6q24 0 47 7q46 15 102.5 61.5t132 122t180.5 182.5q68 70 133 137t119 121q61 63 116 120q23 16 44.5 17.5t31.5 -17.5q-57 -66 -123 -135q-55 -59 -128 -136t-148 -154q-74 -78 -142.5 -154t-138.5 -135q-69 -58 -141 -88 q-51 -22 -109 -22q-22 0 -45 3q-53 8 -88 40t-55.5 70t-28.5 75.5t-8 58.5z" />
<glyph unicode="d" horiz-adv-x="991" d="M-254 10q0 53 41 147.5t106.5 204t147.5 222t164 204t155.5 149.5t122.5 58q47 0 82 -15t59.5 -35.5t38 -41t19.5 -29.5q37 55 85 130t103.5 158t113.5 170t114.5 170t106.5 157t89 129t63.5 88t28.5 35q23 6 49.5 6t48.5 -11q20 -12 34 -36q12 -20 12 -52v-10 q-35 -49 -103.5 -154.5t-156.5 -244.5t-188.5 -302t-199 -324.5t-189.5 -313.5t-160.5 -270.5t-111.5 -193.5t-42 -83q2 0 33.5 30t80 79t109 111.5t123.5 127.5q148 153 334 348q20 16 44.5 16.5t31.5 -16.5q-168 -186 -318 -344q-63 -68 -129.5 -136t-128 -127.5 t-114 -105.5t-87.5 -71q-14 0 -44.5 13.5t-61.5 35t-53.5 49t-22.5 54.5q0 14 21 71q-59 -76 -124 -135t-124 -88q-18 -2 -33 -2q-43 0 -72 12q-39 16 -61.5 44t-29.5 61t-7 61zM-55 -86q63 43 137 119t145.5 166t137 183t114.5 169q41 70 86 138.5t86 139.5q-11 2 -22 2 q-49 0 -110 -41q-75 -51 -154.5 -139t-155.5 -199.5t-136.5 -217t-95 -193.5t-32.5 -127z" />
<glyph unicode="e" horiz-adv-x="753" d="M-258 41q0 27 13.5 66.5t36 88t52 102.5t62.5 108q66 104 145.5 208.5t159.5 188.5t150.5 137t119.5 53q41 0 79 -16t67.5 -41t48 -55.5t18.5 -59.5q0 -49 -21.5 -108.5t-59.5 -117.5t-90 -111.5t-113.5 -91.5t-131.5 -56q-42 -11 -86 -11q-29 0 -57 5 q-41 -68 -75.5 -135.5t-61.5 -129t-41 -111.5q-11 -39 -11 -66q0 -8 1 -15q22 -7 44 -6q24 0 47 7q46 15 102.5 61.5t132 122t180.5 182.5q68 70 133 137t119 121q61 63 116 120q23 16 44.5 17.5t31.5 -17.5q-57 -66 -123 -135q-55 -59 -128 -136t-148 -154 q-74 -78 -142.5 -153t-137 -131t-141.5 -89q-56 -25 -117 -25q-19 0 -38 2q-59 6 -95 38t-54.5 70t-24.5 75.5t-6 60.5zM176 389q39 25 82 64t85 88t78.5 107t61.5 124q-76 -68 -156.5 -169t-150.5 -214z" />
<glyph unicode="f" horiz-adv-x="763" d="M-535 -559q0 55 40 158.5t108 239.5t159 297t193.5 332t212 344t213 333t196.5 299t163.5 242.5t114.5 164t48 62.5q18 6 48 3t56.5 -16.5t44.5 -39.5q14 -20 14 -49q0 -6 -1 -13q-6 -6 -44 -64.5t-99.5 -153.5t-139 -217t-162.5 -257t-172 -272.5t-165 -264.5 q25 -72 93 -95q44 -15 94 -15q26 0 54 4q80 12 161 54t134 101q23 16 44.5 17.5t31.5 -17.5q-78 -90 -174 -142t-189 -68q-38 -6 -74 -6q-51 0 -98 14q-79 22 -120 84l-74 -123q-23 -80 -57.5 -191.5t-75.5 -234.5t-87 -244t-90 -218t-84 -156.5t-69 -59.5q-31 0 -72.5 9 t-80.5 29.5t-67 52.5t-28 77zM-352 -653q31 23 78 105.5t99 193t102 232.5t87 226q-78 -133 -144.5 -254.5t-115.5 -222t-77.5 -174t-28.5 -106.5z" />
<glyph unicode="g" horiz-adv-x="972" d="M-496 -555q0 41 35 72.5t97.5 62.5t148.5 62.5t186 74.5q49 66 98.5 138.5t102.5 152.5q-59 -66 -116.5 -118t-114.5 -80q-72 4 -115 27.5t-65.5 54t-28.5 61.5t-6 49q2 55 45 150.5t109.5 206t149.5 224t166 205t156.5 149.5t124.5 58q41 0 74 -12t56.5 -29.5t40 -36 t24.5 -30.5q8 14 25.5 45t37 63.5t35.5 62t23 42.5q42 28 77 28h8q37 -4 62 -24.5t32 -52t-7 -58.5q-53 -92 -130 -228t-164 -288.5t-178.5 -306.5t-177.5 -283q2 0 35 32t84 83t115.5 116.5t132.5 133.5q158 160 356 366q23 16 44.5 17.5t31.5 -17.5q-221 -236 -414 -434 q-82 -84 -165.5 -169t-158.5 -157.5t-135.5 -127.5t-95.5 -80q-59 -78 -119.5 -143.5t-119 -114.5t-112.5 -77t-103 -28q-35 0 -68 11.5t-59.5 32t-43 50t-16.5 64.5zM-420 -556.5q-12 -21.5 31 -21.5q59 0 127.5 51.5t146.5 139.5q-68 -23 -134 -55.5t-112.5 -62.5 t-58.5 -51.5zM-72 -109q55 37 119 101.5t127.5 141.5t123.5 160t112.5 158.5t92.5 137t62 96.5q23 43 43.5 82t42.5 76q-4 4 -20 4q-63 -10 -139 -73.5t-155 -156t-153.5 -201t-131 -211t-91.5 -187.5t-33 -128z" />
<glyph unicode="h" horiz-adv-x="991" d="M-313 -16q2 25 52 119t132 233t187.5 309t217 344t219 339t194.5 294t145.5 209t68.5 84q29 8 58.5 3t52 -20.5t35 -40t6.5 -53.5q-63 -76 -148.5 -196.5t-180.5 -265t-194.5 -303t-192.5 -312.5t-173 -292t-137 -238q47 72 116.5 156.5t146.5 168.5t155.5 164 t146.5 143.5t118 103.5t70 46q33 10 60 10q28 -1 51 -11q40 -18 40 -87q0 -9 -1 -19q-53 -59 -114.5 -147t-122 -187.5t-116 -200.5t-98.5 -184t-68.5 -140.5t-25.5 -67.5q8 4 41 34.5t81 80t107.5 109.5t120.5 122q144 145 322 327q23 23 47 20t29 -20l-369 -387 q-72 -74 -140.5 -143.5t-125 -125.5t-95 -91t-49.5 -37q-16 -4 -32 -4q-20 0 -38 7q-34 13 -58.5 38t-37 54.5t-6.5 54.5q6 29 44 109.5t92.5 186t120 222t130.5 215.5q-129 -131 -317 -350.5t-397 -532.5h-13q-48 0 -78 12q-34 14 -52.5 37t-23.5 49.5t-3 51.5z" />
<glyph unicode="i" horiz-adv-x="528" d="M-272 -12q0 25 23.5 79t62.5 126.5t89 158.5t104 173t106.5 167t96.5 143.5t73.5 102.5t40.5 43q31 12 59.5 10t51 -16t34.5 -39t8 -55q-47 -66 -106.5 -158t-120 -192.5t-118.5 -201t-103 -182t-73 -135t-28 -61.5q4 0 35 28.5t79 75.5t107.5 106.5t120.5 123.5 q144 145 326 333q27 20 47.5 18.5t28.5 -18.5q-207 -217 -375 -389q-72 -74 -141.5 -143.5t-125 -123.5t-91 -88t-41.5 -34q-84 0 -127 29t-43 119zM418 1085q0 8 9 34t25.5 60.5t38 74.5t46.5 77q29 19 59 19h4q32 -2 57 -18.5t38.5 -43t4.5 -55.5q-39 -45 -71.5 -84 t-57.5 -68q-29 -35 -53 -61q-6 0 -22.5 9t-34 20.5t-30.5 21.5t-13 14z" />
<glyph unicode="j" horiz-adv-x="507" d="M-975 -549q0 41 37 73t101.5 62.5t151.5 63.5t185 76q86 111 173 247t169 275t156 270t132 234.5t99 169t58 69.5q26 7 49 7q16 0 30 -3q37 -8 62 -26.5t35 -40t2 -33.5q-49 -63 -113.5 -172t-139.5 -242t-159 -279.5t-172 -283.5q2 0 34 29.5t81 79t110.5 113 t126.5 128.5q150 154 340 350q23 16 44.5 17.5t31.5 -17.5q-213 -229 -401 -421q-80 -82 -162 -165t-154.5 -154t-132 -125t-94.5 -79q-61 -82 -122.5 -150.5t-122 -117.5t-121 -76.5t-117.5 -27.5q-88 0 -144 30q-53 27 -53 107v12zM-897 -563q20 -7 40 -7q24 0 47 9 q44 16 86 47t78 67.5t62 65.5q-133 -51 -218 -91t-95 -91zM403 1126q0 8 10.5 36t28 66t40.5 81t48 84q30 21 62 21h7q36 -3 63.5 -20.5t42 -47t6.5 -60.5q-41 -49 -76 -92t-64 -74q-33 -37 -59 -65q-6 0 -24.5 9t-37 21.5t-33 24.5t-14.5 16z" />
<glyph unicode="k" horiz-adv-x="1048" d="M-326 -100q0 25 50.5 124t132.5 243.5t188.5 321.5t218 357t220 352t197.5 306.5t147.5 218.5t70.5 88q31 12 61.5 12t55 -13.5t36.5 -39.5q8 -18 9 -42q0 -11 -2 -24q-27 -39 -81 -125t-125 -198.5t-150.5 -242.5t-157.5 -256t-145.5 -238.5t-112.5 -190.5 q68 76 140.5 153.5t138 141t116.5 104.5t74 41q178 0 178 -143q0 -33 -36 -103.5t-98.5 -155.5t-146.5 -175t-179 -162q-96 -72 -198 -115q-86 -36 -169 -36q-15 0 -31 1q-1 -16 -1 -32q-1 -138 65 -172q25 -13 58 -13q62 -1 152 47q137 72 331.5 247t434.5 437 q37 25 53.5 18t22.5 -18q-242 -268 -422 -435t-311 -255t-218 -106q-31 -6 -57 -6q-50 0 -84 21q-54 32 -79 101.5t-33 157.5q-74 -133 -102.5 -218t-28.5 -101q-28 -5 -52 -5q-59 0 -89 28q-42 40 -42 100zM115 244q74 16 148.5 63t144 110.5t131 136.5t107.5 141.5 t74 125.5t32 90q-16 0 -64.5 -42t-112 -108.5t-136 -145t-138 -153.5t-116 -134.5t-70.5 -83.5z" />
<glyph unicode="l" horiz-adv-x="677" d="M-324 -116q-5 23 -5 44q0 37 16 72q8 16 40.5 72.5t84 142.5t119 194.5t143.5 229.5q86 137 179 284.5t183 287t173 265.5t147.5 221t106.5 151.5t52 60.5q31 10 62 4t54.5 -22.5t35.5 -42t6 -54.5q-51 -59 -117.5 -153.5t-145.5 -210t-164 -248.5t-172 -270.5 t-171 -275.5t-159.5 -263t-138 -233.5t-107.5 -188.5q-32 -59 -32 -88q0 -14 7 -21q18 -20 54 -7t83 49t102.5 88.5t113 111.5t114.5 119.5t106 111.5q59 59 112.5 114.5t94.5 96.5l92 92q23 16 44.5 17.5t31.5 -17.5q-43 -47 -94 -100q-43 -47 -101.5 -107.5t-121.5 -125.5 q-66 -68 -132.5 -135.5t-128 -128t-112.5 -108.5t-86 -75q-100 -78 -179 -83q-9 -1 -18 -1q-66 0 -110 33q-48 35 -62 97z" />
<glyph unicode="m" horiz-adv-x="1425" d="M-301 -37q0 27 42 112t106.5 196.5t140 234.5t142.5 227.5t115 173t58 72.5q31 12 62.5 14t55 -10t37.5 -40q9 -19 9 -48q0 -13 -2 -27q-92 -135 -182 -277t-162 -259q-84 -137 -162 -269q57 68 133 159t159 190.5t166 198t153.5 178t124 131t77.5 59.5q29 8 57.5 6 t50.5 -15q24 -14 36 -40q11 -22 10 -53v-11q-92 -127 -181.5 -266t-160.5 -260q-84 -141 -160 -277q57 66 135 158t162 191.5t168 198t154.5 177t123 132t72.5 59.5q29 12 56.5 14t48.5 -9q22 -10 34 -38q8 -19 8 -48q0 -12 -2 -26q-47 -63 -105 -152t-118.5 -185.5 t-119 -193.5t-103.5 -178t-72.5 -137.5t-27.5 -72.5q2 0 32.5 28.5t76.5 74.5t104.5 106.5t119.5 122.5q143 145 324 333q23 16 44.5 17.5t31.5 -17.5q-168 -182 -318 -339q-63 -68 -129.5 -135.5t-128 -127t-114 -106.5t-86.5 -72q-17 -1 -33 -1q-37 1 -62 7 q-36 10 -53.5 28.5t-21.5 46.5t2 58q0 27 32.5 101t84 169t115 202.5t126.5 205.5q-115 -135 -279.5 -339.5t-375.5 -479.5q-13 -1 -25 -1q-34 1 -58 9q-32 12 -49.5 31t-23.5 42.5t-6 45.5q0 31 40 117t100.5 197.5t134 233.5t141.5 224q-109 -131 -294.5 -356t-428.5 -543 q-18 -2 -33 -2q-26 0 -46 6q-32 10 -50.5 29.5t-25.5 45.5t-7 48z" />
<glyph unicode="n" horiz-adv-x="980" d="M-289 -37q0 29 42 114t105.5 195.5t138.5 232.5t142.5 225.5t115.5 172t58 74.5q20 12 50 14t55.5 -10t41.5 -39q11 -19 11 -48q0 -11 -2 -24q-86 -129 -175 -271t-161 -261q-84 -141 -164 -275q57 66 135 158t163 190.5t169 197t156 177t122 131t66 60.5q27 14 54.5 12 t48 -17.5t33 -41t12.5 -60.5q-47 -63 -105.5 -152t-119 -186.5t-118 -195.5t-102.5 -180t-71.5 -139.5t-26.5 -73.5q25 23 66 63.5t92 93t109.5 110.5t113.5 116q131 135 283 292q23 16 44 17.5t31 -17.5q-168 -182 -317 -339q-63 -68 -130 -135.5t-128.5 -127 t-113.5 -106.5t-87 -72q-21 -2 -39 -2q-60 0 -92 25q-41 33 -41 125q0 29 32 100.5t83 166.5t114.5 202.5t124.5 206.5q-113 -135 -278.5 -341t-380.5 -485q-11 -1 -20 -1q-29 1 -51 9q-30 12 -50 31t-29.5 42.5t-9.5 45.5z" />
<glyph unicode="o" horiz-adv-x="808" d="M-129 82q0 121 40 236.5t102.5 218t137 188.5t144.5 148.5t124 97.5t77 35q68 0 109.5 -31t64 -79t30 -106.5t7.5 -111.5q0 -72 -20.5 -152t-57.5 -166q51 53 96 99.5t80 81.5q39 41 74 77q23 16 44 17.5t31 -17.5q-72 -76 -147 -157q-66 -72 -146.5 -157t-164.5 -171 q-39 -49 -89.5 -96t-102.5 -87t-103 -70t-90 -44q-20 -5 -41 -5t-42 5q-42 10 -77 41t-57.5 81t-22.5 124zM59 -51q63 39 128 101.5t123.5 138t109.5 160.5t87 172q37 87 55 173q15 68 14 128q0 16 -1 32q-33 -27 -83 -74t-106 -112.5t-114.5 -146.5t-104.5 -173t-77 -193.5 t-31 -205.5z" />
<glyph unicode="p" horiz-adv-x="1024" d="M-596 -553q0 25 38 104.5t100.5 194.5t142 254t164.5 280.5t169 275.5t154 238.5t118 170t62 71.5q41 16 73 16q39 0 67 -23q39 -33 39 -92q0 -15 -3 -32q-31 -37 -82 -108.5t-104 -151.5q43 45 104.5 105.5t123 115t112.5 92t76 37.5q35 0 67.5 -5t57 -22.5t39 -48 t14.5 -81.5q0 -27 -22.5 -88.5t-61.5 -143.5t-91 -178t-113.5 -190.5t-127 -180.5t-131.5 -147q2 0 35 30.5t83 80t112.5 113t128.5 130.5q154 156 348 354q23 16 44 17.5t31 -17.5q-168 -182 -317 -339q-63 -68 -130 -135.5t-128 -127t-113.5 -106.5t-87.5 -72 q-53 -35 -101 -48q-45 -12 -83 -12h-6q-41 1 -76 15t-63 35q-68 47 -115 131q80 0 157.5 41t150.5 107.5t137.5 151.5t118.5 174t98 174t73 151.5t42 107.5t9 41q-6 0 -52 -44t-112.5 -110.5t-144.5 -147.5t-147.5 -152.5t-120.5 -125t-66 -67.5q-96 -158 -187 -317.5 t-164 -294.5t-117 -230.5t-44 -124.5q-21 -2 -38 -2q-29 0 -50 5q-35 10 -55.5 30.5t-27.5 52t-7 68.5z" />
<glyph unicode="q" horiz-adv-x="987" d="M-250 25q0 53 41 146t105.5 200.5t146.5 218t164 201t156.5 146.5t123.5 56q45 0 80 -15t58.5 -34.5t38 -40t20.5 -29.5q41 57 72.5 94.5t42.5 41.5q20 4 37 4q19 0 34 -4q31 -9 51.5 -27t27.5 -40.5t-1 -41.5q-31 -35 -75 -96.5t-97 -145.5t-115.5 -183t-128 -207.5 t-132 -223.5t-130.5 -225q45 45 103.5 104.5t123 124t131 132t128.5 130.5q145 147 299 307q23 16 44 17.5t31 -17.5q-205 -219 -389 -409q-78 -82 -159.5 -166t-157.5 -158.5t-140.5 -136t-109.5 -98.5q-61 -109 -113.5 -205t-91.5 -172h-11q-36 0 -60 11q-29 14 -46.5 34 t-24.5 47t-7 51q0 16 20.5 64.5t55 116t78.5 148.5t92 163q-27 -23 -52.5 -42.5t-54.5 -29.5q-12 -1 -23 -1q-56 0 -90 17q-41 21 -62.5 50.5t-27.5 63.5t-6 59zM-51 -86q78 53 167 152.5t175 212.5q98 162 195.5 309t170.5 252q0 12 -20 12q-61 -10 -137 -71.5t-153 -151.5 t-149.5 -196.5t-129 -208t-88.5 -184.5q-31 -78 -31 -121v-5z" />
<glyph unicode="r" horiz-adv-x="856" d="M47 -12q0 2 15.5 30.5t39 71.5t50 92t51 92t41 74t18.5 37q33 59 46.5 91t16.5 47.5t0 18.5t-6 3l-126 82l-23 18l-27 -29q-10 -8 -23.5 -12t-25.5 -4t-19 4t-7 12l71 78q-17 39 -25 81q-3 19 -4 36q0 21 5 39q18 82 68 129q49 47 111 65q48 15 97 15l27 -1 q62 -5 100 -26q23 -12 42.5 -31.5t33.5 -42t20.5 -45t3.5 -39.5l-215 -151l39 -21q6 -4 31 -21t40 -59q10 -27 10 -66q0 -21 -3 -45q-8 -69 -69 -175q-47 -80 -87 -152.5t-70 -130t-47.5 -94.5t-17.5 -43q2 0 34 29.5t81 79t110.5 113t127.5 128.5q150 154 340 350 q23 16 44 17.5t31 -17.5q-168 -182 -317 -340q-63 -68 -130 -135t-128.5 -126.5t-113.5 -106.5t-87 -72q-16 0 -45 13.5t-57.5 35t-50 49t-21.5 54.5z" />
<glyph unicode="s" horiz-adv-x="614" d="M-379 63q12 -18 29 -30q14 -10 33.5 -19.5t46.5 -9.5q49 0 88 43t73.5 112.5t65.5 159t64.5 181.5t72.5 181t86 158.5t105.5 112.5t132.5 43q27 0 47 -7t35 -15q16 -10 28 -23q31 -45 39 -84q5 -22 5 -43q0 -15 -3 -31q-6 -36 -18 -68t-20.5 -59.5t-7.5 -52t24 -45.5 q-57 8 -90 43q-14 14 -23.5 35t-10.5 49v6q0 27 9 62q10 39 37 88q-57 -25 -99 -88.5t-78 -148.5t-69 -184t-67.5 -194.5t-74.5 -179.5t-93 -137q2 0 33.5 29.5t81 79t110.5 113t127 128.5q150 154 340 350q23 16 44 17.5t32 -17.5q-168 -182 -318 -339 q-63 -68 -129.5 -135.5t-128 -127t-113.5 -106.5t-87 -72q-60 -33 -106 -40q-20 -3 -37 -3q-24 -1 -45 5q-36 10 -63.5 33.5t-45.5 51.5q-45 68 -62 178z" />
<glyph unicode="t" horiz-adv-x="561" d="M-332 1079q0 39 9.5 79t26.5 75t44 58.5t64 29.5q114 16 282 18q42 1 90 1q144 0 342 -5l21 29q74 100 127 172t88 117t51 65.5t21 22.5q20 10 48.5 6t53.5 -19.5t41 -41t10 -58.5l-188 -270q-6 -8 -11.5 -15.5t-9.5 -15.5q111 -4 210 -8t178 -9t131.5 -9.5t70.5 -6.5 q14 -14 14 -32q0 -8 -4 -17q-100 -4 -213 -8q-96 -4 -216 -8t-247 -10q-90 -133 -182 -279.5t-177 -289t-159.5 -272.5t-130 -229.5t-87.5 -162t-32 -68.5q2 0 34 29.5t81 79t110.5 113t127.5 128.5q150 154 340 350q23 16 44 17.5t31 -17.5q-168 -182 -317 -339 q-63 -68 -130 -135.5t-128 -127t-113.5 -106.5t-87.5 -72q-16 0 -47 13.5t-62.5 34t-55 47t-23.5 53.5q0 29 31.5 100.5t86 171.5t125 221t147.5 247t155.5 248t148.5 226q-109 -8 -200 -20.5t-179 -27.5t-180 -33.5t-205 -39.5z" />
<glyph unicode="u" horiz-adv-x="1048" d="M-268 -10q0 16 23.5 67.5t62.5 124t89 158.5t103 174t106.5 171t97.5 148.5t76 105.5t42 44q28 10 55 10h9q32 -2 55.5 -14t35 -35.5t-1.5 -56.5q-55 -74 -120.5 -171.5t-130 -201.5t-124 -204.5t-101.5 -180.5t-63.5 -129t-11.5 -49q12 0 55.5 44t106 114.5t138 163 t154.5 187.5t154.5 188t137 166t102.5 119t52 50q31 12 59.5 9t51 -16t32.5 -39t4 -58q-66 -84 -131.5 -185.5t-128 -206t-116.5 -204t-94 -178t-63.5 -129t-23.5 -58.5q2 0 33.5 29.5t81 79t111 113t126.5 128.5q150 154 340 350q23 16 44.5 17.5t31.5 -17.5 q-168 -182 -318 -339q-63 -68 -129.5 -135.5t-128 -127t-113.5 -106.5t-87 -72q-16 0 -46 13.5t-59.5 35t-52 49t-22.5 54.5q0 18 15 58t40.5 95.5t60.5 121t76 136.5q-84 -104 -169 -204.5t-157.5 -180t-126 -128t-73.5 -48.5q-27 0 -56.5 5t-55.5 21.5t-42 46.5t-16 77z " />
<glyph unicode="v" horiz-adv-x="827" d="M-258 -10q0 33 39 116.5t99.5 193.5t132 227.5t138 218t119 167t70.5 72.5q38 11 66 11q29 0 50 -12q31 -18 31 -74q0 -15 -2 -33q-47 -53 -103 -134t-114.5 -173.5t-115 -188.5t-100.5 -179t-73.5 -145.5t-35.5 -89.5q72 70 159 164q74 80 174.5 192.5t215.5 258.5 q0 53 24.5 122.5t65.5 132t94 105.5t112 43q6 0 29 -8t45.5 -26.5t41 -49.5t18.5 -76q0 -29 -25 -72.5t-69 -99t-103 -119t-127 -128.5q18 -33 69.5 -56t114.5 -35q18 -20 12 -42.5t-36 -26.5q-68 12 -128.5 36.5t-88.5 63.5q-98 -96 -203 -186t-193 -161t-151.5 -114 t-79.5 -43q-31 0 -61.5 6.5t-55 22.5t-40 45t-15.5 74z" />
<glyph unicode="w" horiz-adv-x="1349" d="M-262 -6q0 23 39 103.5t99.5 189t133 229.5t139 223.5t117.5 173t70 76.5q23 8 49.5 10t50 -8t40 -34.5t16.5 -69.5q-55 -74 -121 -171.5t-131.5 -200.5t-124 -203.5t-101.5 -180.5t-64.5 -129t-10.5 -49q12 0 55 44t105.5 116.5t139 165t155.5 188.5t155 189.5t136 167 t100 118.5t49 47q24 7 46 7q36 0 64 -20q44 -30 45 -95q-53 -70 -111.5 -158t-117 -181t-113.5 -185.5t-98 -170t-70.5 -136t-34.5 -83.5q2 2 46.5 46t119 124t173 193.5t210.5 255.5q0 37 23.5 105.5t64.5 134t94.5 114.5t112.5 49q6 0 28.5 -6t47.5 -21.5t44 -41t19 -66.5 q0 -29 -27.5 -76t-74.5 -107.5t-109.5 -128t-130.5 -136.5q18 -33 69.5 -55.5t115.5 -35.5q18 -20 12 -42.5t-37 -26.5q-68 12 -128 36.5t-89 63.5q-98 -96 -200.5 -186t-188.5 -161t-146.5 -114t-78.5 -43q-18 -2 -34 -2q-64 0 -96 38q-40 48 -40 116q0 18 13 56t37.5 91.5 t57.5 118t72 133.5q-84 -104 -167 -202.5t-153.5 -176t-123 -125t-72.5 -47.5q-72 0 -121 31t-49 121z" />
<glyph unicode="x" horiz-adv-x="909" d="M-297 -95.5q0 21.5 4 38.5q2 6 41 49t102.5 110.5t145.5 152.5t170 173q10 66 20.5 129.5t18.5 122.5l-230 -244q-25 -14 -48 -14t-27 14l319 350q6 47 13.5 91.5t9.5 66.5q33 39 62.5 44t52 -5t36 -30.5t13.5 -34.5q0 -6 -3.5 -30t-7.5 -63t-10 -88t-14 -106 q66 66 123 122t101 98t71.5 66.5t31.5 26.5q23 12 50.5 9t49.5 -18t30 -42q3 -9 2 -19q0 -20 -11 -43q-2 -2 -41 -39.5t-105.5 -102t-154.5 -149.5t-188 -184q-12 -82 -22.5 -160.5t-16.5 -140t-8 -99.5t2 -38q2 0 33.5 29.5t81 79t110.5 113t127 128.5q150 154 340 350 q23 16 44 17.5t32 -17.5q-168 -182 -318 -339q-63 -68 -129.5 -135.5t-128 -127t-114 -106.5t-87.5 -72q-16 0 -46.5 4t-61.5 14.5t-53.5 27.5t-22.5 44q0 6 9.5 68.5t21.5 159.5l-159 -159t-154 -159q-16 -2 -30 -2q-21 0 -35 5q-24 9 -33 25.5t-9 38z" />
<glyph unicode="y" horiz-adv-x="1001" d="M-440 -555q0 41 35.5 72.5t98 62.5t149.5 63.5t190 75.5q63 86 137 202t147.5 241t143 247.5t125.5 219.5q-63 -82 -136 -173t-146 -182.5t-143.5 -175.5t-129 -148.5t-100.5 -102t-60 -37.5q-45 0 -79 18t-55.5 43t-31.5 50.5t-10 41.5q0 25 42 108t106.5 194.5 t140 235.5t143.5 229.5t117 176t59 76.5q27 14 57.5 13t56 -15t41 -40t13.5 -58q-63 -94 -131 -201t-133.5 -214.5t-122.5 -205.5t-99 -174t-64.5 -121t-16.5 -45t46 46t101.5 120t139 169t159.5 195.5t162 195.5t146.5 169t112.5 120t60 46q26 9 48 9q11 0 21 -2 q30 -7 51.5 -25.5t32.5 -43t11 -40.5q-53 -66 -120.5 -171.5t-146.5 -234.5t-168 -272.5t-185 -284.5q2 0 33.5 29.5t81 79t111 113t126.5 128.5q150 154 340 350q23 16 44.5 17.5t31.5 -17.5q-205 -221 -385 -407q-78 -80 -157 -160t-149.5 -148.5t-129 -121.5t-93.5 -78 q-143 -199 -259.5 -306.5t-227.5 -107.5q-53 0 -88 18.5t-55.5 43t-28.5 51.5t-10 43zM-365.5 -556.5q-13.5 -21.5 27.5 -21.5q61 0 134 53.5t151 143.5q-68 -25 -136.5 -58.5t-115.5 -64.5t-60.5 -52.5z" />
<glyph unicode="z" horiz-adv-x="768" d="M-244 -77q-2 13 -2 26q0 22 6 47q139 78 278.5 204t246 232.5t190.5 208.5t137 182q-100 -23 -198.5 -32t-108.5 -11l-313 -325q-23 -12 -43.5 -16.5t-24.5 12.5l299 346q-27 16 -36 34.5t-10 39t2 45t3 55.5q81 -8 155 -8q31 0 59 1q100 5 171 13q86 10 154 24 q18 0 36.5 -13t35 -35.5t26.5 -52t10 -60.5q-23 -100 -110.5 -204t-187 -208t-209 -230t-220.5 -188q86 18 110 21.5t73 9.5q57 2 104 2q29 -16 51 -47q23 -30 33 -64q8 -26 8 -52q0 -8 -1 -16q-3 -34 -25 -57q-123 27 -195 35q-41 5 -89 5q-36 0 -77 -3q-115 -8 -219 -22 q-29 -4 -54.5 8t-42 35.5t-22.5 57.5z" />
<glyph unicode="{" horiz-adv-x="1925" d="M0 -180l543 860l-250 129q-16 14 -13 36.5t15 44t30.5 41t36.5 32.5l457 155l518 821h488q82 -43 96 -101t-31 -103h-440l-465 -736l-430 -114l272 -135l-456 -725h379q45 -45 30.5 -103.5t-96.5 -101.5h-684z" />
<glyph unicode="|" horiz-adv-x="1665" d="M0 -330l1477 2323h188l-1475 -2323h-190z" />
<glyph unicode="}" horiz-adv-x="1925" d="M4 -78.5q-14 58.5 31 103.5h440l465 735l430 114l-272 136l456 725h-378q-45 45 -31 103t96 101h684l-543 -860l250 -129q14 -16 12 -37.5t-14 -43t-30.5 -41t-36.5 -31.5l-457 -156l-518 -821h-488q-82 43 -96 101.5z" />
<glyph unicode="~" horiz-adv-x="1140" d="M0 242q33 152 91.5 241.5t133 136t160.5 57.5t175 5t176 -21.5t165 -20.5t139.5 8.5t100.5 62.5q-49 -129 -111.5 -197t-135.5 -96.5t-152.5 -26.5t-160.5 13.5t-162 21.5t-156 0t-142.5 -51t-120.5 -133z" />
<glyph unicode="&#xa1;" horiz-adv-x="1159" d="M0 -412l844 1327h188l-842 -1327h-190zM938 1141q0 47 31.5 78.5t79.5 31.5q47 0 78.5 -31.5t31.5 -78.5t-31.5 -79t-78.5 -32t-79 32t-32 79z" />
<glyph unicode="&#xa2;" horiz-adv-x="1130" d="M0 45q0 53 41 144.5t105.5 195.5t145.5 212t162 195t153.5 142t121.5 55q43 0 72.5 -10t52.5 -21q-18 -25 -27 -69l293 463q80 47 107.5 40.5t42.5 -67.5l-473 -745v-76q-25 0 -43 6l-324 -510q53 37 108.5 82t109.5 96t105.5 103.5t96.5 101.5q106 115 205 235 q25 14 48 15.5t27 -15.5q-131 -166 -266 -309q-57 -61 -121.5 -124.5t-130 -121t-131 -104.5t-127.5 -78l-184 -293q-72 -43 -99.5 -36.5t-50.5 63.5l146 231q-37 10 -66.5 36t-52 54.5t-35 58.5t-12.5 50zM197 -100h4l483 764q4 38 12 71q-59 -55 -119.5 -130t-117 -156.5 t-104.5 -164.5t-83.5 -158t-56 -134.5t-18.5 -91.5z" />
<glyph unicode="&#xa3;" horiz-adv-x="2228" d="M127 4l37 82q156 39 213 70.5t107.5 91t160.5 260.5q37 70 139 248h-247l59 92h246q328 535 674 807q258 203 514 203q123 0 160.5 -30t23.5 -79q-12 -37 -47 -61.5t-70 -24.5q-18 0 -53 8q-145 41 -232 41q-143 0 -262 -172q-209 -248 -460 -692h346l-64 -92h-338 q-209 -354 -430 -547q90 14 144 14q76 0 235 -26q150 -27 211 -27q86 0 157.5 57.5t139.5 194.5h80q-94 -227 -206 -320.5t-267 -93.5q-78 0 -187 12q-289 35 -381 35q-150 0 -403 -51z" />
<glyph unicode="&#xa4;" horiz-adv-x="1533" d="M0 115l178 135q-43 98 -46 183t26 183q31 109 94 209q45 74 145 166l-100 137l137 109l98 -139q104 66 210 99.5t210 33.5q94 0 176 -30t156 -103l178 139l72 -109l-176 -137q45 -94 49 -182t-27 -191q-31 -104 -85 -190t-156 -178l98 -135l-137 -109l-96 137 q-117 -74 -216.5 -105.5t-197.5 -31.5q-102 0 -183 31t-155 106l-180 -137zM322 618q-55 -186 38 -318t279 -132t354 132t224 318q55 186 -36.5 317.5t-277.5 131.5t-356 -131t-225 -318z" />
<glyph unicode="&#xa5;" horiz-adv-x="2498" d="M0 -186l59 71q154 37 197 72q63 45 201 238l157 219h-458l63 90h457q63 92 96 151h-448l59 86h430q84 205 97 398.5t-40 314.5l240 145q59 -147 43 -346.5t-121 -494.5q528 571 878.5 801.5t504.5 230.5q49 0 66.5 -27.5t-1.5 -66.5q-18 -45 -65.5 -71t-155.5 -32 q-111 -8 -201 -55q-160 -80 -416 -294t-532 -503h428l-61 -86h-443q-43 -47 -127 -151h463l-61 -90h-471q-229 -301 -351 -512q66 -12 131 -13q102 0 238 29l-68 -84q-100 -25 -165 -24q-70 0 -177 10q-102 14 -163 14q-88 0 -283 -20z" />
<glyph unicode="&#xa6;" horiz-adv-x="1488" d="M0 -330l604 948h189l-603 -948h-190zM637 707l663 1048h189l-662 -1048h-190z" />
<glyph unicode="&#xa7;" horiz-adv-x="1622" d="M2 -188q-6 20 15.5 46.5t54.5 24.5q35 -25 100 -24q82 0 161 46t118 118q51 98 -13.5 255.5t-65.5 260t48 200.5q59 109 176 199t315 188q-20 121 43 236q80 152 234.5 251t312.5 99q66 0 119 -16q4 -16 -13.5 -39t-41.5 -33q-33 20 -92 21q-82 0 -162 -46.5t-117 -115.5 q-57 -106 27 -297q96 -229 -7 -424q-115 -213 -487 -373q31 -106 -41 -242q-80 -154 -237.5 -256t-313.5 -102q-72 0 -133 23zM640 733q11 -66 77 -287q195 80 260 201q27 51 27 110.5t-86 303.5q-92 -39 -161 -94.5t-95 -106.5q-33 -61 -22 -127z" />
<glyph unicode="&#xa8;" horiz-adv-x="555" d="M0 1149q0 47 31.5 79t79.5 32q47 0 78.5 -32t31.5 -79t-31.5 -79t-78.5 -32t-79 32t-32 79zM334 1149q0 47 31.5 79t78.5 32t79 -32t32 -79t-31.5 -79t-79.5 -32q-47 0 -78.5 32t-31.5 79z" />
<glyph unicode="&#xa9;" horiz-adv-x="1730" d="M22.5 385q-22.5 178 69.5 385q96 209 279.5 387t408.5 281.5t430 103.5q209 0 341 -103.5t156 -281.5t-71 -387q-94 -207 -279.5 -385t-410.5 -281.5t-434 -103.5q-205 0 -336 103.5t-153.5 281.5zM106.5 424q18.5 -162 137 -255t303.5 -93q186 0 390 93t371 255t251 346 q84 186 63.5 348t-139.5 255t-305 93q-184 0 -389 -93t-370 -255t-249 -348q-82 -184 -63.5 -346zM313.5 447.5q-77.5 136.5 10.5 330.5q92 205 331.5 339t466.5 134q49 0 78 -6t98 -33q25 -8 39 -8q31 0 70 47h43l-113 -295h-41q18 125 -36 186.5t-170 61.5 q-98 0 -197.5 -49t-182.5 -139t-143 -221q-100 -219 -55 -327t207 -108q205 0 403 170l31 -18q-244 -215 -500 -215q-262 14 -339.5 150.5z" />
<glyph unicode="&#xaa;" horiz-adv-x="737" d="M0 973q0 66 21.5 159t75 175t132.5 86q59 -2 168 -64l37 72q59 33 115.5 34t85.5 -34q-29 -59 -51.5 -117.5t-52 -167t-39.5 -190.5l210 381q8 12 21.5 12t11.5 -12l-231 -467q-16 -14 -55 -15q-78 0 -123 37q-29 25 -29 66q0 18 4 39l66 219l-166 -346h-146 q-55 4 -55 133zM172 938l2 -33l223 420q-92 -12 -141 -88q-84 -125 -84 -299z" />
<glyph unicode="&#xab;" horiz-adv-x="1716" d="M1 598q3 23 15.5 44.5t31 40.5t36.5 32l917 319q14 -6 17.5 -25.5t-8 -47t-35 -56t-60.5 -53.5l-639 -215l594 -295q8 -12 13.5 -34.5t-2 -48.5t-30 -51.5t-65.5 -45.5l-772 399q-16 14 -13 37zM697.5 598q2.5 23 15 44.5t31 40.5t36.5 32l918 319q14 -6 17 -25.5t-8 -47 t-34.5 -56t-60.5 -53.5l-639 -215l594 -295q8 -12 13 -34.5t-2 -48.5t-29.5 -51.5t-65.5 -45.5l-772 399q-16 14 -13.5 37z" />
<glyph unicode="&#xac;" horiz-adv-x="1724" d="M0 932l106 207h1618l-424 -832h-206l317 625h-1411z" />
<glyph unicode="&#xad;" horiz-adv-x="1228" d="M387 727l64 231h923l-63 -231h-924z" />
<glyph unicode="&#xae;" horiz-adv-x="2127" d="M1 382q-1 179 118 386q119 209 324.5 388t444 282.5t443.5 103.5q209 0 329 -103.5t122 -282.5t-117 -388q-121 -207 -328 -386t-444.5 -282.5t-446.5 -103.5q-205 0 -324.5 103.5t-120.5 282.5zM91.5 421q0.5 -161 108 -254t292.5 -93q188 0 402 93t398.5 254t292.5 347 q106 188 106.5 349t-108.5 254t-297 93q-184 0 -398 -93t-399.5 -254t-291.5 -349q-106 -186 -105.5 -347zM147 317l21 35q51 0 79.5 11.5t53.5 37.5q14 14 61 97l314 551q47 82 49 96q6 23 -6 35t-57 12l22 37h506q152 0 193.5 -67.5t-15.5 -168.5q-49 -88 -141 -146.5 t-230 -88.5l43 -314q6 -53 27 -75q10 -14 47 -17l-20 -35h-193l-65 426h-78l-189 -325q-14 -37 2.5 -51.5t83.5 -14.5l-20 -35h-488zM782 788h29q139 0 234.5 54.5t144.5 138.5q49 86 22.5 143.5t-118.5 57.5q-41 0 -99 -17z" />
<glyph unicode="&#xb0;" horiz-adv-x="1935" d="M620 1421.5q-40 69.5 1 169.5q39 98 137 167t196 69t138.5 -68.5t1.5 -167.5q-41 -100 -137.5 -169.5t-198.5 -69.5q-98 0 -138 69.5zM705 1589q-25 -61 1.5 -107t90.5 -46q61 0 122.5 45t88.5 108q25 66 0.5 110t-90.5 44q-61 0 -125 -46t-88 -108z" />
<glyph unicode="&#xb1;" horiz-adv-x="1409" d="M0 -141h1124v-199h-1124v199zM285 487v199h557l346 567h170l-346 -567h397v-199h-518l-356 -587h-170l356 587h-436z" />
<glyph unicode="&#xb2;" horiz-adv-x="782" d="M0 616q137 164 283 281q154 121 202 188q68 90 68 160q0 55 -32 88t-83 33q-41 0 -82 -27.5t-90 -105.5l-63 29q63 109 130.5 152.5t162.5 47.5q166 2 226 -62.5t58 -152.5q0 -43 -19.5 -88t-72.5 -98q-31 -31 -174 -127q-178 -121 -303 -197q127 4 475 4v-125h-686z" />
<glyph unicode="&#xb3;" horiz-adv-x="741" d="M0 692q0 23 17.5 37t45.5 14q35 0 87 -43q53 -43 92 -43q76 0 164 92.5t88 188.5q0 57 -31 90t-84 33q-47 0 -123 -25l10 68q115 33 199 117q59 57 59 116q0 43 -22.5 65.5t-61.5 22.5q-88 0 -182 -100l-59 35q152 162 354 153q88 0 138 -37.5t50 -95.5q0 -53 -39 -106 q-53 -76 -200 -125q129 -14 174 -61.5t45 -118.5q0 -133 -148.5 -258t-382.5 -119q-88 0 -147 37q-43 29 -43 63z" />
<glyph unicode="&#xb4;" horiz-adv-x="460" d="M0 1532l213 297h248l-340 -297h-121z" />
<glyph unicode="&#xb5;" horiz-adv-x="1570" d="M0 -256l817 1268q80 47 137.5 27.5t71.5 -81.5l-489 -759q43 -18 91 -16.5t99 20t100.5 48.5t96.5 66l438 680q80 47 137 28t72 -81l-617 -958q-39 -27 -78.5 -39.5t-73.5 -12.5t-58.5 13.5t-32.5 38.5l123 190q-68 -37 -159 -59.5t-208 -26.5l-223 -346q-39 -27 -79 -39 t-74 -12t-58.5 13t-32.5 38z" />
<glyph unicode="&#xb6;" horiz-adv-x="1744" d="M0 -133l479 751q-150 37 -230.5 159t-27.5 347q55 201 174 327t229 156.5t300 32.5l800 7q16 -12 19.5 -41t-19.5 -41h-88l-1081 -1698q-18 -10 -42 -16.5t-46.5 -8.5t-43 4.5t-28.5 20.5l1082 1692h-244l-1073 -1692q-18 -10 -42 -16.5t-46.5 -8.5t-43 4.5t-28.5 20.5z " />
<glyph unicode="&#xb7;" horiz-adv-x="241" d="M0 659q0 51 35 86t86 35t86 -34.5t35 -86.5q0 -51 -35 -85.5t-86 -34.5t-86 34.5t-35 85.5z" />
<glyph unicode="&#xb8;" horiz-adv-x="374" d="M0 -528l23 69q104 23 170 78q45 37 45 86q0 37 -29 61.5t-70 24.5q-8 0 -18 -2l123 211h75l-69 -131q63 -8 94 -42t31 -81q0 -80 -98.5 -163t-276.5 -111z" />
<glyph unicode="&#xb9;" horiz-adv-x="647" d="M0 614l16 31q137 25 157 39t38 66q61 164 102 333l33 127q8 31 8 45q0 12 -14 13q-16 0 -158 -62l-24 51l438 181h51l-59 -205q-43 -139 -60 -207l-49 -182q-41 -141 -41 -164q0 -12 8.5 -16.5t131.5 -18.5l-15 -29z" />
<glyph unicode="&#xba;" horiz-adv-x="770" d="M37 1016q39 143 169 244.5t275 101.5q141 0 215 -101.5t35 -244.5q-39 -141 -170 -243.5t-272 -102.5q-145 0 -217 102t-35 244zM168 1016q-25 -88 21.5 -150.5t136.5 -62.5q88 0 167.5 62.5t104.5 150.5t-21.5 151.5t-132.5 63.5q-90 0 -170.5 -63.5t-105.5 -151.5z" />
<glyph unicode="&#xbb;" horiz-adv-x="1716" d="M0 187.5q-2 19.5 9 47t35 56t60 53.5l639 215l-593 295q-10 12 -14.5 34.5t2.5 48.5t29.5 51.5t65.5 45.5l773 -399q14 -16 12 -38t-14.5 -43.5t-31 -40.5t-36.5 -32l-918 -319q-16 6 -18 25.5zM696.5 187.5q-2.5 19.5 9 47t35 56t60.5 53.5l639 215l-594 295 q-10 12 -14.5 34.5t3 48.5t30 51.5t65.5 45.5l772 -399q14 -16 12 -38t-14 -43.5t-30.5 -40.5t-37.5 -32l-917 -319q-16 6 -18.5 25.5z" />
<glyph unicode="&#xbc;" d="M0 614l16 31q137 25 157 39t38 66q61 164 102 333l33 127q8 31 8 45q0 12 -14 13q-16 0 -158 -62l-24 51l438 181h51l-59 -205q-43 -139 -60 -207l-49 -182q-41 -141 -41 -164q0 -12 8.5 -16.5t131.5 -18.5l-15 -29zM152 -158l1140 1790h262l-1138 -1790h-264zM678 82 q0 33 102 149q205 231 516 451h131q-8 -27 -77 -258l-76 -277h119l-21 -84h-119l-57 -221h-223l55 221q-211 4 -301 -2q-49 -2 -49 21zM807 150h242q31 121 92 331q-184 -145 -334 -331z" />
<glyph unicode="&#xbd;" d="M0 614l16 31q137 25 157 39t38 66q61 164 102 333l33 127q8 31 8 45q0 12 -14 13q-16 0 -158 -62l-24 51l438 181h51l-59 -205q-43 -139 -60 -207l-49 -182q-41 -141 -41 -164q0 -12 8.5 -16.5t131.5 -18.5l-15 -29zM152 -158l1140 1790h262l-1138 -1790h-264zM748 -158 q137 164 282 281q154 121 203 188q68 90 67 160q0 55 -31.5 88t-82.5 33q-41 0 -82 -27.5t-90 -105.5l-64 28q63 109 131 153t162 48q166 2 226.5 -62.5t58.5 -152.5q0 -43 -19.5 -88t-72.5 -98q-31 -31 -174 -127q-178 -121 -304 -197q127 4 476 4v-125h-686z" />
<glyph unicode="&#xbe;" horiz-adv-x="1628" d="M0 692q0 23 17.5 37t45.5 14q35 0 87 -43q53 -43 92 -43q76 0 164 92.5t88 188.5q0 57 -31 90t-84 33q-47 0 -123 -25l10 68q115 33 199 117q59 57 59 116q0 43 -22.5 65.5t-61.5 22.5q-88 0 -182 -100l-59 35q152 162 354 153q88 0 138 -37.5t50 -95.5q0 -53 -39 -106 q-53 -76 -200 -125q129 -14 174 -61.5t45 -118.5q0 -133 -148.5 -258t-382.5 -119q-88 0 -147 37q-43 29 -43 63zM225 -158l1141 1790h262l-1139 -1790h-264zM752 82q0 33 102 149q205 231 516 451h131q-8 -27 -78 -258l-75 -277h118l-20 -84h-119l-57 -221h-223l55 221 q-211 4 -301 -2q-49 -2 -49 21zM881 150h241q31 121 92 331q-184 -145 -333 -331z" />
<glyph unicode="&#xbf;" horiz-adv-x="1503" d="M-2 -14.5q-49 149.5 90 376.5q141 231 410 408q174 117 512 219q258 78 313 115t350 448h109q-406 -582 -512 -675q-70 -66 -207 -103q-410 -111 -606 -237q-195 -125 -289 -277q-74 -121 -54.5 -192.5t115.5 -71.5q80 0 260 94q78 39 95 45q27 8 51 8q43 0 56.5 -30.5 t-13.5 -73.5q-45 -74 -172 -138.5t-256 -64.5q-203 0 -252 149.5zM1704 1800q0 47 31.5 79t79.5 32q47 0 78.5 -32t31.5 -79t-31.5 -78.5t-78.5 -31.5t-79 31.5t-32 78.5z" />
<glyph unicode="&#xc0;" d="M144.5 409.5q-13.5 57.5 2 125t80.5 114.5q119 86 294 125t419 33q25 20 45 45q125 127 254 256t250 247t228.5 220t191.5 177t137 118t65 43q20 0 40 -11.5t35.5 -26.5t23.5 -32.5t8 -27.5q-33 -41 -99.5 -136.5t-152.5 -223.5t-184.5 -281.5t-196.5 -313.5t-188 -317.5 t-160 -293.5t-111 -242.5t-41 -164.5q-55 2 -96 23q-35 16 -64.5 50t-29.5 95q0 20 27.5 83t70.5 148t94.5 179t98.5 180l-209 -6q-129 -160 -237.5 -295t-186.5 -240q-92 -121 -164 -221q-16 0 -46 17.5t-58.5 43t-50 53.5t-21.5 48q0 12 40 62.5t106.5 126t154.5 170 t184 196.5q-16 -4 -30 -8q-109 -25 -198 -57.5t-153.5 -75.5t-85.5 -90q-18 -31 -45.5 -1.5t-41 87zM1137 786l137 -34q98 182 215.5 350t236.5 332q-156 -162 -294 -313.5t-261 -293.5q-10 -10 -17 -20t-17 -21zM1892 2302h248l129 -299h-121z" />
<glyph unicode="&#xc1;" d="M144.5 409.5q-13.5 57.5 2 125t80.5 114.5q119 86 294 125t419 33q25 20 45 45q125 127 254 256t250 247t228.5 220t191.5 177t137 118t65 43q20 0 40 -11.5t35.5 -26.5t23.5 -32.5t8 -27.5q-33 -41 -99.5 -136.5t-152.5 -223.5t-184.5 -281.5t-196.5 -313.5t-188 -317.5 t-160 -293.5t-111 -242.5t-41 -164.5q-55 2 -96 23q-35 16 -64.5 50t-29.5 95q0 20 27.5 83t70.5 148t94.5 179t98.5 180l-209 -6q-129 -160 -237.5 -295t-186.5 -240q-92 -121 -164 -221q-16 0 -46 17.5t-58.5 43t-50 53.5t-21.5 48q0 12 40 62.5t106.5 126t154.5 170 t184 196.5q-16 -4 -30 -8q-109 -25 -198 -57.5t-153.5 -75.5t-85.5 -90q-18 -31 -45.5 -1.5t-41 87zM1137 786l137 -34q98 182 215.5 350t236.5 332q-156 -162 -294 -313.5t-261 -293.5q-10 -10 -17 -20t-17 -21zM2146 2001l213 297h248l-340 -297h-121z" />
<glyph unicode="&#xc2;" d="M144.5 409.5q-13.5 57.5 2 125t80.5 114.5q119 86 294 125t419 33q25 20 45 45q125 127 254 256t250 247t228.5 220t191.5 177t137 118t65 43q20 0 40 -11.5t35.5 -26.5t23.5 -32.5t8 -27.5q-33 -41 -99.5 -136.5t-152.5 -223.5t-184.5 -281.5t-196.5 -313.5t-188 -317.5 t-160 -293.5t-111 -242.5t-41 -164.5q-55 2 -96 23q-35 16 -64.5 50t-29.5 95q0 20 27.5 83t70.5 148t94.5 179t98.5 180l-209 -6q-129 -160 -237.5 -295t-186.5 -240q-92 -121 -164 -221q-16 0 -46 17.5t-58.5 43t-50 53.5t-21.5 48q0 12 40 62.5t106.5 126t154.5 170 t184 196.5q-16 -4 -30 -8q-109 -25 -198 -57.5t-153.5 -75.5t-85.5 -90q-18 -31 -45.5 -1.5t-41 87zM1137 786l137 -34q98 182 215.5 350t236.5 332q-156 -162 -294 -313.5t-261 -293.5q-10 -10 -17 -20t-17 -21zM1810 2001l385 338h183v-338h-70l-65 211l-365 -211h-68z " />
<glyph unicode="&#xc3;" d="M144.5 409.5q-13.5 57.5 2 125t80.5 114.5q119 86 294 125t419 33q25 20 45 45q125 127 254 256t250 247t228.5 220t191.5 177t137 118t65 43q20 0 40 -11.5t35.5 -26.5t23.5 -32.5t8 -27.5q-33 -41 -99.5 -136.5t-152.5 -223.5t-184.5 -281.5t-196.5 -313.5t-188 -317.5 t-160 -293.5t-111 -242.5t-41 -164.5q-55 2 -96 23q-35 16 -64.5 50t-29.5 95q0 20 27.5 83t70.5 148t94.5 179t98.5 180l-209 -6q-129 -160 -237.5 -295t-186.5 -240q-92 -121 -164 -221q-16 0 -46 17.5t-58.5 43t-50 53.5t-21.5 48q0 12 40 62.5t106.5 126t154.5 170 t184 196.5q-16 -4 -30 -8q-109 -25 -198 -57.5t-153.5 -75.5t-85.5 -90q-18 -31 -45.5 -1.5t-41 87zM1137 786l137 -34q98 182 215.5 350t236.5 332q-156 -162 -294 -313.5t-261 -293.5q-10 -10 -17 -20t-17 -21zM1923 1948q23 98 65 144t96 60.5t112.5 8t112.5 -13.5 t99.5 -6t69.5 34q-33 -84 -76 -115.5t-93 -37t-103.5 5t-104.5 12.5t-97 -15.5t-81 -76.5z" />
<glyph unicode="&#xc4;" d="M144.5 409.5q-13.5 57.5 2 125t80.5 114.5q119 86 294 125t419 33q25 20 45 45q125 127 254 256t250 247t228.5 220t191.5 177t137 118t65 43q20 0 40 -11.5t35.5 -26.5t23.5 -32.5t8 -27.5q-33 -41 -99.5 -136.5t-152.5 -223.5t-184.5 -281.5t-196.5 -313.5t-188 -317.5 t-160 -293.5t-111 -242.5t-41 -164.5q-55 2 -96 23q-35 16 -64.5 50t-29.5 95q0 20 27.5 83t70.5 148t94.5 179t98.5 180l-209 -6q-129 -160 -237.5 -295t-186.5 -240q-92 -121 -164 -221q-16 0 -46 17.5t-58.5 43t-50 53.5t-21.5 48q0 12 40 62.5t106.5 126t154.5 170 t184 196.5q-16 -4 -30 -8q-109 -25 -198 -57.5t-153.5 -75.5t-85.5 -90q-18 -31 -45.5 -1.5t-41 87zM1137 786l137 -34q98 182 215.5 350t236.5 332q-156 -162 -294 -313.5t-261 -293.5q-10 -10 -17 -20t-17 -21zM1880 2111q0 47 32 79t79 32t78.5 -31.5t31.5 -79.5 q0 -47 -31.5 -78.5t-78.5 -31.5t-79 31.5t-32 78.5zM2214 2111q0 47 31.5 79t78.5 32t79 -31.5t32 -79.5q0 -47 -31.5 -78.5t-79.5 -31.5q-47 0 -78.5 31.5t-31.5 78.5z" />
<glyph unicode="&#xc5;" d="M144.5 409.5q-13.5 57.5 2 125t80.5 114.5q119 86 294 125t419 33q25 20 45 45q125 127 254 256t250 247t228.5 220t191.5 177t137 118t65 43q20 0 40 -11.5t35.5 -26.5t23.5 -32.5t8 -27.5q-33 -41 -99.5 -136.5t-152.5 -223.5t-184.5 -281.5t-196.5 -313.5t-188 -317.5 t-160 -293.5t-111 -242.5t-41 -164.5q-55 2 -96 23q-35 16 -64.5 50t-29.5 95q0 20 27.5 83t70.5 148t94.5 179t98.5 180l-209 -6q-129 -160 -237.5 -295t-186.5 -240q-92 -121 -164 -221q-16 0 -46 17.5t-58.5 43t-50 53.5t-21.5 48q0 12 40 62.5t106.5 126t154.5 170 t184 196.5q-16 -4 -30 -8q-109 -25 -198 -57.5t-153.5 -75.5t-85.5 -90q-18 -31 -45.5 -1.5t-41 87zM1137 786l137 -34q98 182 215.5 350t236.5 332q-156 -162 -294 -313.5t-261 -293.5q-10 -10 -17 -20t-17 -21zM2048 2187q14 78 75.5 132.5t139.5 54.5q39 0 70.5 -14.5 t53 -40t31 -59.5t3.5 -73t-26.5 -72.5t-50.5 -59t-66.5 -40t-75.5 -14.5q-78 0 -123 54t-31 132zM2140 2189q-6 -39 15.5 -66.5t60.5 -27.5t71.5 27.5t41.5 66.5q4 39 -18.5 65.5t-61.5 26.5t-71 -26.5t-38 -65.5z" />
<glyph unicode="&#xc6;" horiz-adv-x="3041" d="M144.5 409.5q-13.5 57.5 2 125t80.5 114.5q119 86 294 125t419 33q25 20 45 45q125 127 254 256t250 247t228.5 220t191.5 177t137 118t65 43q35 0 62 -25.5t39 -50.5q104 43 216 66.5t218.5 24.5t200.5 -23.5t164 -77.5q-10 -6 -36 -37t-57.5 -78t-65.5 -105.5 t-61.5 -119t-43 -115.5t-9.5 -98q-82 45 -103.5 105.5t-6 127t58.5 134t92 122.5q-147 -33 -299.5 -93t-278.5 -138t-207 -168t-83 -182q45 -53 111.5 -80t140 -36t144.5 -7t124 8q20 -10 33.5 -31.5t16.5 -47t-6 -52.5t-34 -47q-121 -47 -254 -111.5t-262 -141.5 t-245.5 -161t-206 -167t-142.5 -162.5t-53 -147.5q45 -14 109.5 -9t141.5 26.5t158.5 54t161.5 73.5t153 85t130 87q27 6 48.5 -13t31.5 -51t5 -69t-32 -65q-74 -61 -173 -111.5t-204.5 -86.5t-208 -55.5t-180.5 -19.5q-29 0 -66.5 12.5t-76.5 39t-73 68.5t-52 102 q-66 -147 -66 -224q-55 2 -96 23q-35 16 -64.5 50t-29.5 95q0 20 27.5 83t70.5 148t94.5 179t98.5 180l-209 -6q-129 -160 -237.5 -295t-186.5 -240q-92 -121 -164 -221q-16 0 -46 17.5t-58.5 43t-50 53.5t-21.5 48q0 12 40 62.5t106.5 126t154.5 170t184 196.5 q-16 -4 -30 -8q-109 -25 -198 -57.5t-153.5 -75.5t-85.5 -90q-18 -31 -45.5 -1.5t-41 87zM1137 786l137 -34q98 182 215.5 350t236.5 332q-156 -162 -294 -313.5t-261 -293.5q-10 -10 -17 -20t-17 -21zM1438 612q104 80 222 147.5t222.5 118t182 80t104.5 31.5 q-78 10 -148 37q-59 23 -121.5 65t-97.5 113q-92 -141 -185 -293t-179 -299z" />
<glyph unicode="&#xc7;" horiz-adv-x="1617" d="M131 195q0 123 41 262t110.5 282.5t162 284.5t195.5 271t212 241t210 192.5t190 128t153 46.5q25 0 56.5 -12.5t60 -34t49 -48t20.5 -53.5q0 -53 -21.5 -131t-57 -167t-84 -184t-101.5 -187.5t-109.5 -174.5t-107.5 -141q-41 -12 -72.5 -5t-53 26.5t-31 47t-7.5 56.5 q55 66 117.5 148.5t122 172t114 177.5t95.5 163.5t65.5 135t24.5 88.5q-94 -31 -209 -127.5t-233.5 -231.5t-234.5 -299t-211 -328.5t-162.5 -320.5t-91.5 -275.5t5 -192.5t125 -73q100 0 204.5 44t208 116t202 164t184.5 188q203 225 395 512q8 10 20.5 16.5t27 7.5 t25.5 -5.5t17 -18.5q-143 -240 -311 -448q-72 -90 -155 -181t-174 -174t-189.5 -151t-198.5 -108l-35 -66q63 -8 94 -42t31 -81q0 -80 -98 -163t-277 -111l23 69q104 23 170 78q45 37 45 86q0 37 -28.5 61.5t-69.5 24.5q-8 0 -19 -2l64 113q-37 -10 -73 -15.5t-73 -5.5 q-68 0 -131 22.5t-112.5 67.5t-79 112t-29.5 153z" />
<glyph unicode="&#xc8;" horiz-adv-x="1486" d="M0 180q0 96 68.5 193.5t174 186.5t232.5 166t241.5 133t202 90t115.5 36q-113 16 -200 59q-37 18 -73 45t-63.5 64t-45 84t-17.5 106q0 113 67.5 211.5t177 173t246 124t274.5 65.5t264 -6t212 -88q-10 -6 -35.5 -37t-57.5 -78t-66 -105.5t-61.5 -118t-43 -115.5 t-8.5 -99q-82 45 -103.5 105.5t-6.5 127t58 134t93 122.5q-147 -33 -300 -93t-279 -138t-207 -168t-83 -182q45 -53 111.5 -80t140.5 -36t144.5 -7t123.5 8q20 -10 33.5 -31.5t17 -47.5t-6 -52.5t-33.5 -46.5q-121 -47 -254 -111.5t-262 -141.5t-246 -161t-206 -167 t-142.5 -163t-53.5 -147q45 -14 109.5 -9t141.5 26.5t159 54t162 73.5t152.5 85t129.5 87q27 6 48.5 -13t31.5 -51t5 -69t-31 -65q-74 -61 -173.5 -111.5t-205 -86.5t-208 -55.5t-179.5 -19.5q-35 0 -83 18.5t-93.5 58.5t-77 104.5t-31.5 158.5zM1284 2300h248l129 -299 h-121z" />
<glyph unicode="&#xc9;" horiz-adv-x="1486" d="M0 180q0 96 68.5 193.5t174 186.5t232.5 166t241.5 133t202 90t115.5 36q-113 16 -200 59q-37 18 -73 45t-63.5 64t-45 84t-17.5 106q0 113 67.5 211.5t177 173t246 124t274.5 65.5t264 -6t212 -88q-10 -6 -35.5 -37t-57.5 -78t-66 -105.5t-61.5 -118t-43 -115.5 t-8.5 -99q-82 45 -103.5 105.5t-6.5 127t58 134t93 122.5q-147 -33 -300 -93t-279 -138t-207 -168t-83 -182q45 -53 111.5 -80t140.5 -36t144.5 -7t123.5 8q20 -10 33.5 -31.5t17 -47.5t-6 -52.5t-33.5 -46.5q-121 -47 -254 -111.5t-262 -141.5t-246 -161t-206 -167 t-142.5 -163t-53.5 -147q45 -14 109.5 -9t141.5 26.5t159 54t162 73.5t152.5 85t129.5 87q27 6 48.5 -13t31.5 -51t5 -69t-31 -65q-74 -61 -173.5 -111.5t-205 -86.5t-208 -55.5t-179.5 -19.5q-35 0 -83 18.5t-93.5 58.5t-77 104.5t-31.5 158.5zM1374 2001l213 297h248 l-340 -297h-121z" />
<glyph unicode="&#xca;" horiz-adv-x="1486" d="M0 180q0 96 68.5 193.5t174 186.5t232.5 166t241.5 133t202 90t115.5 36q-113 16 -200 59q-37 18 -73 45t-63.5 64t-45 84t-17.5 106q0 113 67.5 211.5t177 173t246 124t274.5 65.5t264 -6t212 -88q-10 -6 -35.5 -37t-57.5 -78t-66 -105.5t-61.5 -118t-43 -115.5 t-8.5 -99q-82 45 -103.5 105.5t-6.5 127t58 134t93 122.5q-147 -33 -300 -93t-279 -138t-207 -168t-83 -182q45 -53 111.5 -80t140.5 -36t144.5 -7t123.5 8q20 -10 33.5 -31.5t17 -47.5t-6 -52.5t-33.5 -46.5q-121 -47 -254 -111.5t-262 -141.5t-246 -161t-206 -167 t-142.5 -163t-53.5 -147q45 -14 109.5 -9t141.5 26.5t159 54t162 73.5t152.5 85t129.5 87q27 6 48.5 -13t31.5 -51t5 -69t-31 -65q-74 -61 -173.5 -111.5t-205 -86.5t-208 -55.5t-179.5 -19.5q-35 0 -83 18.5t-93.5 58.5t-77 104.5t-31.5 158.5zM1196 1944l385 337h182v-337 h-69l-66 210l-364 -210h-68z" />
<glyph unicode="&#xcb;" horiz-adv-x="1486" d="M0 180q0 96 68.5 193.5t174 186.5t232.5 166t241.5 133t202 90t115.5 36q-113 16 -200 59q-37 18 -73 45t-63.5 64t-45 84t-17.5 106q0 113 67.5 211.5t177 173t246 124t274.5 65.5t264 -6t212 -88q-10 -6 -35.5 -37t-57.5 -78t-66 -105.5t-61.5 -118t-43 -115.5 t-8.5 -99q-82 45 -103.5 105.5t-6.5 127t58 134t93 122.5q-147 -33 -300 -93t-279 -138t-207 -168t-83 -182q45 -53 111.5 -80t140.5 -36t144.5 -7t123.5 8q20 -10 33.5 -31.5t17 -47.5t-6 -52.5t-33.5 -46.5q-121 -47 -254 -111.5t-262 -141.5t-246 -161t-206 -167 t-142.5 -163t-53.5 -147q45 -14 109.5 -9t141.5 26.5t159 54t162 73.5t152.5 85t129.5 87q27 6 48.5 -13t31.5 -51t5 -69t-31 -65q-74 -61 -173.5 -111.5t-205 -86.5t-208 -55.5t-179.5 -19.5q-35 0 -83 18.5t-93.5 58.5t-77 104.5t-31.5 158.5zM1274 2109q0 47 31.5 79 t78.5 32t79 -31.5t32 -79.5q0 -47 -31.5 -78.5t-79.5 -31.5q-47 0 -78.5 31.5t-31.5 78.5zM1608 2109q0 47 31.5 79t78.5 32t79 -31.5t32 -79.5q0 -47 -32 -78.5t-79 -31.5t-78.5 31.5t-31.5 78.5z" />
<glyph unicode="&#xcc;" horiz-adv-x="841" d="M154.5 1074.5q-23.5 64.5 5.5 139.5q53 137 179 264.5t287.5 226.5t342 160.5t340.5 69.5q47 6 55 -16.5t-5 -64.5t-41.5 -94t-53.5 -103q-66 -115 -149 -255t-171 -295t-175 -317.5t-163 -322.5t-131 -311.5t-82 -282.5q-18 -16 -44.5 -26.5t-55.5 -13.5t-55.5 4 t-44.5 30q0 102 47 253.5t123.5 327t176 362.5t202 363.5t199.5 328t173 253.5q-88 -39 -181 -100.5t-182 -134t-166 -152.5t-134.5 -156.5t-88 -147.5t-22.5 -122q0 -35 -39 -24.5t-81 51.5t-65.5 105.5zM969 2300h248l129 -299h-121z" />
<glyph unicode="&#xcd;" horiz-adv-x="841" d="M154.5 1074.5q-23.5 64.5 5.5 139.5q53 137 179 264.5t287.5 226.5t342 160.5t340.5 69.5q47 6 55 -16.5t-5 -64.5t-41.5 -94t-53.5 -103q-66 -115 -149 -255t-171 -295t-175 -317.5t-163 -322.5t-131 -311.5t-82 -282.5q-18 -16 -44.5 -26.5t-55.5 -13.5t-55.5 4 t-44.5 30q0 102 47 253.5t123.5 327t176 362.5t202 363.5t199.5 328t173 253.5q-88 -39 -181 -100.5t-182 -134t-166 -152.5t-134.5 -156.5t-88 -147.5t-22.5 -122q0 -35 -39 -24.5t-81 51.5t-65.5 105.5zM1167 2003l213 297h248l-340 -297h-121z" />
<glyph unicode="&#xce;" horiz-adv-x="841" d="M154.5 1074.5q-23.5 64.5 5.5 139.5q53 137 179 264.5t287.5 226.5t342 160.5t340.5 69.5q47 6 55 -16.5t-5 -64.5t-41.5 -94t-53.5 -103q-66 -115 -149 -255t-171 -295t-175 -317.5t-163 -322.5t-131 -311.5t-82 -282.5q-18 -16 -44.5 -26.5t-55.5 -13.5t-55.5 4 t-44.5 30q0 102 47 253.5t123.5 327t176 362.5t202 363.5t199.5 328t173 253.5q-88 -39 -181 -100.5t-182 -134t-166 -152.5t-134.5 -156.5t-88 -147.5t-22.5 -122q0 -35 -39 -24.5t-81 51.5t-65.5 105.5zM850 2003l385 338h182v-338h-69l-66 211l-364 -211h-68z" />
<glyph unicode="&#xcf;" horiz-adv-x="841" d="M154.5 1074.5q-23.5 64.5 5.5 139.5q53 137 179 264.5t287.5 226.5t342 160.5t340.5 69.5q47 6 55 -16.5t-5 -64.5t-41.5 -94t-53.5 -103q-66 -115 -149 -255t-171 -295t-175 -317.5t-163 -322.5t-131 -311.5t-82 -282.5q-18 -16 -44.5 -26.5t-55.5 -13.5t-55.5 4 t-44.5 30q0 102 47 253.5t123.5 327t176 362.5t202 363.5t199.5 328t173 253.5q-88 -39 -181 -100.5t-182 -134t-166 -152.5t-134.5 -156.5t-88 -147.5t-22.5 -122q0 -35 -39 -24.5t-81 51.5t-65.5 105.5zM883 2111q0 47 31.5 79t78.5 32t79 -31.5t32 -79.5q0 -47 -32 -78.5 t-79 -31.5t-78.5 31.5t-31.5 78.5zM1217 2111q0 47 31.5 79t78.5 32t79 -31.5t32 -79.5q0 -47 -32 -78.5t-79 -31.5t-78.5 31.5t-31.5 78.5z" />
<glyph unicode="&#xd0;" horiz-adv-x="1486" d="M8 121q-12 41 0 79t37 62.5t54.5 32.5t52.5 -8q90 -207 229 -225.5t317 122.5q14 12 72.5 77t141.5 164t181.5 226t192.5 261.5t175 268.5t130 249.5t57.5 202.5t-44.5 130q-45 35 -126 28t-169 -48q-86 -39 -179.5 -100.5t-182.5 -134t-165.5 -152.5t-134 -157 t-88.5 -147.5t-22 -121.5q0 -35 -39 -25t-81 51t-65.5 105.5t4.5 140.5q53 137 179.5 264t288 226.5t281.5 143.5t159 54q47 12 103 19.5t113.5 7.5t112 -8t99.5 -27q106 -47 134.5 -145.5t0 -229.5t-102 -284.5t-170 -309t-204 -303t-205.5 -268.5t-174 -203t-107 -106 q-125 -98 -244.5 -145.5t-230 -40t-208 74t-173.5 199.5zM133 641l64 231h444q80 127 166 251t159.5 222.5t126 159t62.5 60.5q23 0 44.5 -9.5t36.5 -23.5t24.5 -28.5t9.5 -24.5q-31 -41 -76 -104.5t-96 -143.5t-107.5 -172t-111.5 -187h241l-63 -231h-305 q-78 -152 -128.5 -277.5t-50.5 -197.5q-53 4 -94 20q-35 14 -64.5 43t-29.5 82t34 139.5t87 190.5h-373z" />
<glyph unicode="&#xd1;" horiz-adv-x="1503" d="M169 1086.5q-24 64.5 5 140.5q53 137 179 264t288 226.5t342 161t340 69.5q31 2 41 -19.5t3 -58.5t-29.5 -89t-57.5 -112q-86 -150 -190.5 -319.5t-207 -350t-194.5 -365.5t-149 -364q299 453 540 809q102 152 202.5 298.5t182.5 263t136.5 189.5t64.5 79q35 18 72 18 t66.5 -16.5t48 -49t18.5 -77.5q0 -4 -37 -83t-98.5 -206t-139 -292t-159.5 -341t-160 -351t-139.5 -325.5t-98.5 -264.5t-37 -165q-25 0 -59.5 6.5t-67 22.5t-56 46t-23.5 77q0 55 36.5 164.5t97 251t138.5 305.5t158 325q188 381 432 826q-287 -420 -531 -795 q-104 -160 -208.5 -325.5t-194.5 -318.5t-159.5 -282t-104.5 -217q-57 8 -103 35q-39 23 -69.5 67t-30.5 122q0 82 43 211t114.5 283.5t164 323.5t189.5 329.5t191.5 304t169.5 247.5q-88 -37 -181 -98t-182 -134t-166 -153t-134 -156.5t-88 -147t-23 -122.5 q0 -35 -39 -24.5t-80.5 51.5t-65.5 105.5zM1397 1997q23 98 64.5 144t96 60.5t113 8.5t112.5 -13.5t99 -6.5t70 34q-33 -84 -76 -115.5t-93 -37t-103.5 5t-104.5 12.5t-97 -15.5t-81 -76.5z" />
<glyph unicode="&#xd2;" horiz-adv-x="1458" d="M29 133q0 78 17 165t48 179q-70 119 -59.5 270.5t78 309t181.5 308.5t251 269.5t288.5 190t292.5 71.5q88 -2 149.5 -22.5t98.5 -57t53.5 -88t16.5 -112.5q0 -147 -48 -333.5t-131 -381t-198 -381t-247 -333t-277.5 -235.5t-290.5 -89q-106 10 -164.5 78.5t-58.5 191.5z M215 760q59 115 128 221t144 201q33 16 66 9t56.5 -30.5t33.5 -60.5t-2 -78q-86 -115 -164 -247t-136 -269t-89 -270.5t-19 -247.5q133 57 265.5 178t250 277.5t217 337t169 357.5t103.5 338.5t22 280.5q-115 0 -227.5 -43t-216 -116.5t-198 -173t-172 -210t-137 -227 t-94.5 -227.5zM897 2241h248l129 -299h-121z" />
<glyph unicode="&#xd3;" horiz-adv-x="1458" d="M29 133q0 78 17 165t48 179q-70 119 -59.5 270.5t78 309t181.5 308.5t251 269.5t288.5 190t292.5 71.5q88 -2 149.5 -22.5t98.5 -57t53.5 -88t16.5 -112.5q0 -147 -48 -333.5t-131 -381t-198 -381t-247 -333t-277.5 -235.5t-290.5 -89q-106 10 -164.5 78.5t-58.5 191.5z M215 760q59 115 128 221t144 201q33 16 66 9t56.5 -30.5t33.5 -60.5t-2 -78q-86 -115 -164 -247t-136 -269t-89 -270.5t-19 -247.5q133 57 265.5 178t250 277.5t217 337t169 357.5t103.5 338.5t22 280.5q-115 0 -227.5 -43t-216 -116.5t-198 -173t-172 -210t-137 -227 t-94.5 -227.5zM1118 1942l213 296h248l-340 -296h-121z" />
<glyph unicode="&#xd4;" horiz-adv-x="1458" d="M29 133q0 78 17 165t48 179q-70 119 -59.5 270.5t78 309t181.5 308.5t251 269.5t288.5 190t292.5 71.5q88 -2 149.5 -22.5t98.5 -57t53.5 -88t16.5 -112.5q0 -147 -48 -333.5t-131 -381t-198 -381t-247 -333t-277.5 -235.5t-290.5 -89q-106 10 -164.5 78.5t-58.5 191.5z M215 760q59 115 128 221t144 201q33 16 66 9t56.5 -30.5t33.5 -60.5t-2 -78q-86 -115 -164 -247t-136 -269t-89 -270.5t-19 -247.5q133 57 265.5 178t250 277.5t217 337t169 357.5t103.5 338.5t22 280.5q-115 0 -227.5 -43t-216 -116.5t-198 -173t-172 -210t-137 -227 t-94.5 -227.5zM891 1942l385 337h182v-337h-69l-66 210l-365 -210h-67z" />
<glyph unicode="&#xd5;" horiz-adv-x="1458" d="M29 133q0 78 17 165t48 179q-70 119 -59.5 270.5t78 309t181.5 308.5t251 269.5t288.5 190t292.5 71.5q88 -2 149.5 -22.5t98.5 -57t53.5 -88t16.5 -112.5q0 -147 -48 -333.5t-131 -381t-198 -381t-247 -333t-277.5 -235.5t-290.5 -89q-106 10 -164.5 78.5t-58.5 191.5z M215 760q59 115 128 221t144 201q33 16 66 9t56.5 -30.5t33.5 -60.5t-2 -78q-86 -115 -164 -247t-136 -269t-89 -270.5t-19 -247.5q133 57 265.5 178t250 277.5t217 337t169 357.5t103.5 338.5t22 280.5q-115 0 -227.5 -43t-216 -116.5t-198 -173t-172 -210t-137 -227 t-94.5 -227.5zM958 1917q23 98 65 144t96.5 60.5t112.5 8.5t112.5 -13.5t99.5 -6.5t69 34q-33 -84 -75.5 -115.5t-93 -36.5t-103.5 5t-104.5 12t-97.5 -15.5t-81 -76.5z" />
<glyph unicode="&#xd6;" horiz-adv-x="1458" d="M29 133q0 78 17 165t48 179q-70 119 -59.5 270.5t78 309t181.5 308.5t251 269.5t288.5 190t292.5 71.5q88 -2 149.5 -22.5t98.5 -57t53.5 -88t16.5 -112.5q0 -147 -48 -333.5t-131 -381t-198 -381t-247 -333t-277.5 -235.5t-290.5 -89q-106 10 -164.5 78.5t-58.5 191.5z M215 760q59 115 128 221t144 201q33 16 66 9t56.5 -30.5t33.5 -60.5t-2 -78q-86 -115 -164 -247t-136 -269t-89 -270.5t-19 -247.5q133 57 265.5 178t250 277.5t217 337t169 357.5t103.5 338.5t22 280.5q-115 0 -227.5 -43t-216 -116.5t-198 -173t-172 -210t-137 -227 t-94.5 -227.5zM907 2052q0 47 32 79t79 32t78.5 -32t31.5 -79t-31.5 -78.5t-78.5 -31.5t-79 31.5t-32 78.5zM1241 2052q0 47 32 79t79 32t78.5 -32t31.5 -79t-31.5 -78.5t-78.5 -31.5t-79 31.5t-32 78.5z" />
<glyph unicode="&#xd7;" horiz-adv-x="1193" d="M0 446l461 119l-398 385l207 51l398 -385l385 103l141 -150l-385 -102l375 -354l-207 -52l-373 357l-461 -119z" />
<glyph unicode="&#xd8;" horiz-adv-x="1390" d="M63 -326l177 283q-47 66 -47 176q0 78 17 165t48 179q-70 119 -59.5 270.5t78 309t181 308.5t251 269.5t289 190t292.5 71.5q96 -4 158 -26l80 127h188l-143 -228q18 -33 26.5 -71.5t8.5 -81.5q0 -147 -48.5 -333.5t-131 -381t-197.5 -381t-247 -333t-277.5 -235.5 t-290.5 -89l-41 6l-121 -195h-191zM379 760q59 115 127.5 221t144.5 201q33 16 66 9t56.5 -30.5t33.5 -60.5t-2 -78q-66 -86 -126.5 -183.5t-112.5 -198.5t-92 -205.5t-60 -203.5l960 1524q-166 -14 -322.5 -111.5t-288.5 -240.5t-232.5 -313t-151.5 -330zM475 27 q106 61 211 161.5t201 223.5t181 262t152.5 283.5t115.5 284.5t71 265z" />
<glyph unicode="&#xd9;" horiz-adv-x="1683" d="M203.5 1072.5q-23.5 64.5 5.5 139.5q53 137 179 264.5t288 226.5t342 160.5t340 69.5q63 4 54 -60.5t-95 -203.5q-76 -123 -162 -260t-172 -284.5t-168 -300t-147.5 -305t-110.5 -301t-57 -286.5q29 4 75 45t104 112t128 165t144.5 204.5t153.5 231.5t157 244 q272 432 591 979q41 23 77 19.5t61.5 -23t39 -48t7.5 -55.5q-37 -68 -91.5 -175t-120 -238t-136 -279.5t-139 -299t-131 -295t-109.5 -267.5t-75 -218t-28 -147q-25 0 -59.5 6.5t-66 22.5t-55 46t-23.5 77q0 31 26.5 115t65.5 187t78.5 205.5t68.5 168.5 q-106 -172 -213.5 -330t-206 -278.5t-182.5 -192.5t-145 -72q-57 8 -103 35q-39 23 -69.5 67t-30.5 122q0 102 43 238t114.5 290t163 315.5t187.5 314t190 290t170 241.5q-86 -41 -179 -102.5t-182 -134t-166 -152.5t-134.5 -156.5t-88 -147.5t-22.5 -122q0 -35 -39 -24.5 t-81 51.5t-65.5 105.5zM1491 2300h248l129 -299h-121z" />
<glyph unicode="&#xda;" horiz-adv-x="1683" d="M203.5 1072.5q-23.5 64.5 5.5 139.5q53 137 179 264.5t288 226.5t342 160.5t340 69.5q63 4 54 -60.5t-95 -203.5q-76 -123 -162 -260t-172 -284.5t-168 -300t-147.5 -305t-110.5 -301t-57 -286.5q29 4 75 45t104 112t128 165t144.5 204.5t153.5 231.5t157 244 q272 432 591 979q41 23 77 19.5t61.5 -23t39 -48t7.5 -55.5q-37 -68 -91.5 -175t-120 -238t-136 -279.5t-139 -299t-131 -295t-109.5 -267.5t-75 -218t-28 -147q-25 0 -59.5 6.5t-66 22.5t-55 46t-23.5 77q0 31 26.5 115t65.5 187t78.5 205.5t68.5 168.5 q-106 -172 -213.5 -330t-206 -278.5t-182.5 -192.5t-145 -72q-57 8 -103 35q-39 23 -69.5 67t-30.5 122q0 102 43 238t114.5 290t163 315.5t187.5 314t190 290t170 241.5q-86 -41 -179 -102.5t-182 -134t-166 -152.5t-134.5 -156.5t-88 -147.5t-22.5 -122q0 -35 -39 -24.5 t-81 51.5t-65.5 105.5zM1456 2003l213 297h248l-340 -297h-121z" />
<glyph unicode="&#xdb;" horiz-adv-x="1683" d="M203.5 1072.5q-23.5 64.5 5.5 139.5q53 137 179 264.5t288 226.5t342 160.5t340 69.5q63 4 54 -60.5t-95 -203.5q-76 -123 -162 -260t-172 -284.5t-168 -300t-147.5 -305t-110.5 -301t-57 -286.5q29 4 75 45t104 112t128 165t144.5 204.5t153.5 231.5t157 244 q272 432 591 979q41 23 77 19.5t61.5 -23t39 -48t7.5 -55.5q-37 -68 -91.5 -175t-120 -238t-136 -279.5t-139 -299t-131 -295t-109.5 -267.5t-75 -218t-28 -147q-25 0 -59.5 6.5t-66 22.5t-55 46t-23.5 77q0 31 26.5 115t65.5 187t78.5 205.5t68.5 168.5 q-106 -172 -213.5 -330t-206 -278.5t-182.5 -192.5t-145 -72q-57 8 -103 35q-39 23 -69.5 67t-30.5 122q0 102 43 238t114.5 290t163 315.5t187.5 314t190 290t170 241.5q-86 -41 -179 -102.5t-182 -134t-166 -152.5t-134.5 -156.5t-88 -147.5t-22.5 -122q0 -35 -39 -24.5 t-81 51.5t-65.5 105.5zM1411 2003l385 338h182v-338h-69l-66 211l-364 -211h-68z" />
<glyph unicode="&#xdc;" horiz-adv-x="1683" d="M203.5 1072.5q-23.5 64.5 5.5 139.5q53 137 179 264.5t288 226.5t342 160.5t340 69.5q63 4 54 -60.5t-95 -203.5q-76 -123 -162 -260t-172 -284.5t-168 -300t-147.5 -305t-110.5 -301t-57 -286.5q29 4 75 45t104 112t128 165t144.5 204.5t153.5 231.5t157 244 q272 432 591 979q41 23 77 19.5t61.5 -23t39 -48t7.5 -55.5q-37 -68 -91.5 -175t-120 -238t-136 -279.5t-139 -299t-131 -295t-109.5 -267.5t-75 -218t-28 -147q-25 0 -59.5 6.5t-66 22.5t-55 46t-23.5 77q0 31 26.5 115t65.5 187t78.5 205.5t68.5 168.5 q-106 -172 -213.5 -330t-206 -278.5t-182.5 -192.5t-145 -72q-57 8 -103 35q-39 23 -69.5 67t-30.5 122q0 102 43 238t114.5 290t163 315.5t187.5 314t190 290t170 241.5q-86 -41 -179 -102.5t-182 -134t-166 -152.5t-134.5 -156.5t-88 -147.5t-22.5 -122q0 -35 -39 -24.5 t-81 51.5t-65.5 105.5zM1401 2114q0 47 31.5 78.5t78.5 31.5t79 -31.5t32 -78.5t-31.5 -79t-79.5 -32q-47 0 -78.5 32t-31.5 79zM1735 2114q0 47 31.5 78.5t78.5 31.5t79 -31.5t32 -78.5t-32 -79t-79 -32t-78.5 32t-31.5 79z" />
<glyph unicode="&#xdd;" horiz-adv-x="1536" d="M185.5 1074.5q-23.5 64.5 4.5 139.5q53 137 179.5 264.5t288 226.5t341.5 160.5t340 69.5q49 2 64.5 -18.5t5.5 -57t-40 -87t-69 -105.5q-127 -184 -241.5 -356t-205.5 -327t-152.5 -292t-79.5 -254q43 6 118.5 73t168.5 171t198.5 235.5t208.5 268.5q242 319 520 723 q39 25 77 26.5t64.5 -13.5t39 -46t3.5 -74q-63 -104 -138 -244.5t-157 -298t-170 -323.5t-177 -323.5t-178 -298t-174 -245t-165 -166t-149 -61.5q-27 0 -57.5 10.5t-57.5 32t-44 53t-17 74.5q63 0 144 63.5t172 170t187.5 246t189.5 293t182 310t163 296.5 q-76 -113 -160 -234t-172 -236.5t-176 -220t-169 -182.5t-153.5 -124t-130.5 -46q-45 8 -80 33q-29 23 -53 65.5t-24 120.5q0 84 46 199t116.5 238.5t154.5 247.5t161 227.5t135 177.5t77 98q-88 -39 -181.5 -100.5t-182.5 -134t-165.5 -152.5t-134 -156.5t-88.5 -147.5 t-22 -122q0 -35 -39 -24.5t-81 51.5t-65.5 105.5zM1565 2001l213 297h247l-339 -297h-121z" />
<glyph unicode="&#xde;" horiz-adv-x="1861" d="M0 -199l29 52q84 10 131 44.5t102 129.5l729 1302q106 195 205.5 293t286 157.5t295.5 59.5q45 0 64.5 -21.5t6.5 -54.5q-8 -31 -39.5 -53t-78.5 -22q-25 0 -62 8q-88 10 -127 10q-45 0 -84 -35t-127 -188l-295 -510q215 162 287 201q123 66 207 65q51 0 71.5 -52 t-10.5 -155q-84 -256 -318.5 -487.5t-424.5 -231.5q-78 0 -143 41l-201 -350q-18 -31 -25 -51q-12 -39 10 -57q37 -25 177 -43l-29 -52q-137 14 -262 15q-100 0 -375 -15zM768 473q57 -84 145 -84q125 0 286 198.5t220 387.5q20 57 3 89t-62 32q-49 0 -129 -49 q-125 -78 -201 -154q-55 -55 -131 -191z" />
<glyph unicode="&#xdf;" horiz-adv-x="1910" d="M6 -76q12 35 44 54.5t83 19.5q27 0 82 -8q57 -8 88 -8q111 0 164 45q73 50 186 243l613 1037q170 291 356 413.5t352 106.5q106 -14 146.5 -77.5t11.5 -147.5q-20 -66 -59 -117q-59 -72 -172 -168q-133 -115 -179 -170q-37 -39 -47 -70q-14 -43 0 -116q33 -125 31 -178.5 t-25 -116.5q-29 -82 -94 -157t-160 -126q-66 -35 -143 -35q-82 0 -118 43t-17 103q16 43 47 67.5t66 24.5q29 0 42 -18.5t3 -49.5q-4 -8 -15 -24q-8 -16 -12 -29q-8 -20 8 -35q10 -16 45 -16q59 0 116.5 44t80.5 111q33 96 2 228q-29 127 -27 143q0 31 8 51q12 41 44 80 t157 156q252 233 297 368q25 70 3.5 108t-83.5 38q-76 0 -156.5 -69.5t-205.5 -291.5l-522 -882q-195 -336 -411 -496t-411 -160h-147q-78 0 -72 82z" />
<glyph unicode="&#xe0;" horiz-adv-x="1382" d="M0 25q0 55 41 148t105.5 200.5t145.5 218t163 200t156.5 145.5t123.5 56q43 0 77 -12t57.5 -30.5t38 -37t22.5 -30.5q76 100 108 110q27 10 54.5 9t49 -14t34 -38.5t10.5 -64.5q-53 -68 -115.5 -162t-126 -198.5t-123 -209t-105.5 -190.5t-74 -142.5t-28 -64.5 q2 0 34 29.5t81 79t110.5 113t127.5 128.5q150 153 340 350q23 16 44 17.5t31 -17.5q-168 -182 -317 -339q-63 -68 -130 -135.5t-128.5 -127t-113.5 -106.5t-87 -72q-16 0 -45 13.5t-57.5 35t-50 49t-21.5 54.5q0 14 14 53q-59 -68 -119.5 -122t-117.5 -83q-74 -4 -115 14.5 t-62.5 47t-26.5 63.5t-5 62zM197 -82q49 33 103 85t108.5 116.5t108.5 136.5t104 139q68 123 142.5 243t139.5 210q-63 -2 -140 -59.5t-156 -146.5t-153.5 -197.5t-132 -212t-92 -187.5t-32.5 -127zM651 1481h248l129 -299h-121z" />
<glyph unicode="&#xe1;" horiz-adv-x="1382" d="M0 25q0 55 41 148t105.5 200.5t145.5 218t163 200t156.5 145.5t123.5 56q43 0 77 -12t57.5 -30.5t38 -37t22.5 -30.5q76 100 108 110q27 10 54.5 9t49 -14t34 -38.5t10.5 -64.5q-53 -68 -115.5 -162t-126 -198.5t-123 -209t-105.5 -190.5t-74 -142.5t-28 -64.5 q2 0 34 29.5t81 79t110.5 113t127.5 128.5q150 153 340 350q23 16 44 17.5t31 -17.5q-168 -182 -317 -339q-63 -68 -130 -135.5t-128.5 -127t-113.5 -106.5t-87 -72q-16 0 -45 13.5t-57.5 35t-50 49t-21.5 54.5q0 14 14 53q-59 -68 -119.5 -122t-117.5 -83q-74 -4 -115 14.5 t-62.5 47t-26.5 63.5t-5 62zM197 -82q49 33 103 85t108.5 116.5t108.5 136.5t104 139q68 123 142.5 243t139.5 210q-63 -2 -140 -59.5t-156 -146.5t-153.5 -197.5t-132 -212t-92 -187.5t-32.5 -127zM889 1182l213 297h248l-340 -297h-121z" />
<glyph unicode="&#xe2;" horiz-adv-x="1382" d="M0 25q0 55 41 148t105.5 200.5t145.5 218t163 200t156.5 145.5t123.5 56q43 0 77 -12t57.5 -30.5t38 -37t22.5 -30.5q76 100 108 110q27 10 54.5 9t49 -14t34 -38.5t10.5 -64.5q-53 -68 -115.5 -162t-126 -198.5t-123 -209t-105.5 -190.5t-74 -142.5t-28 -64.5 q2 0 34 29.5t81 79t110.5 113t127.5 128.5q150 153 340 350q23 16 44 17.5t31 -17.5q-168 -182 -317 -339q-63 -68 -130 -135.5t-128.5 -127t-113.5 -106.5t-87 -72q-16 0 -45 13.5t-57.5 35t-50 49t-21.5 54.5q0 14 14 53q-59 -68 -119.5 -122t-117.5 -83q-74 -4 -115 14.5 t-62.5 47t-26.5 63.5t-5 62zM197 -82q49 33 103 85t108.5 116.5t108.5 136.5t104 139q68 123 142.5 243t139.5 210q-63 -2 -140 -59.5t-156 -146.5t-153.5 -197.5t-132 -212t-92 -187.5t-32.5 -127zM692 1182l385 338h183v-338h-70l-66 211l-364 -211h-68z" />
<glyph unicode="&#xe3;" horiz-adv-x="1382" d="M0 25q0 55 41 148t105.5 200.5t145.5 218t163 200t156.5 145.5t123.5 56q43 0 77 -12t57.5 -30.5t38 -37t22.5 -30.5q76 100 108 110q27 10 54.5 9t49 -14t34 -38.5t10.5 -64.5q-53 -68 -115.5 -162t-126 -198.5t-123 -209t-105.5 -190.5t-74 -142.5t-28 -64.5 q2 0 34 29.5t81 79t110.5 113t127.5 128.5q150 153 340 350q23 16 44 17.5t31 -17.5q-168 -182 -317 -339q-63 -68 -130 -135.5t-128.5 -127t-113.5 -106.5t-87 -72q-16 0 -45 13.5t-57.5 35t-50 49t-21.5 54.5q0 14 14 53q-59 -68 -119.5 -122t-117.5 -83q-74 -4 -115 14.5 t-62.5 47t-26.5 63.5t-5 62zM197 -82q49 33 103 85t108.5 116.5t108.5 136.5t104 139q68 123 142.5 243t139.5 210q-63 -2 -140 -59.5t-156 -146.5t-153.5 -197.5t-132 -212t-92 -187.5t-32.5 -127zM727 1178q23 98 65 144t96 60.5t112.5 8t112.5 -13.5t99 -6t70 34 q-33 -84 -76 -116t-93 -37t-103.5 5.5t-104.5 12.5t-97 -15.5t-81 -76.5z" />
<glyph unicode="&#xe4;" horiz-adv-x="1382" d="M0 25q0 55 41 148t105.5 200.5t145.5 218t163 200t156.5 145.5t123.5 56q43 0 77 -12t57.5 -30.5t38 -37t22.5 -30.5q76 100 108 110q27 10 54.5 9t49 -14t34 -38.5t10.5 -64.5q-53 -68 -115.5 -162t-126 -198.5t-123 -209t-105.5 -190.5t-74 -142.5t-28 -64.5 q2 0 34 29.5t81 79t110.5 113t127.5 128.5q150 153 340 350q23 16 44 17.5t31 -17.5q-168 -182 -317 -339q-63 -68 -130 -135.5t-128.5 -127t-113.5 -106.5t-87 -72q-16 0 -45 13.5t-57.5 35t-50 49t-21.5 54.5q0 14 14 53q-59 -68 -119.5 -122t-117.5 -83q-74 -4 -115 14.5 t-62.5 47t-26.5 63.5t-5 62zM197 -82q49 33 103 85t108.5 116.5t108.5 136.5t104 139q68 123 142.5 243t139.5 210q-63 -2 -140 -59.5t-156 -146.5t-153.5 -197.5t-132 -212t-92 -187.5t-32.5 -127zM696 1292q0 47 32 79t79 32t79 -32t32 -79t-32 -78.5t-79 -31.5t-79 31.5 t-32 78.5zM1030 1292q0 47 32 79t79 32t78.5 -32t31.5 -79t-31.5 -78.5t-78.5 -31.5t-79 31.5t-32 78.5z" />
<glyph unicode="&#xe5;" horiz-adv-x="1382" d="M0 25q0 55 41 148t105.5 200.5t145.5 218t163 200t156.5 145.5t123.5 56q43 0 77 -12t57.5 -30.5t38 -37t22.5 -30.5q76 100 108 110q27 10 54.5 9t49 -14t34 -38.5t10.5 -64.5q-53 -68 -115.5 -162t-126 -198.5t-123 -209t-105.5 -190.5t-74 -142.5t-28 -64.5 q2 0 34 29.5t81 79t110.5 113t127.5 128.5q150 153 340 350q23 16 44 17.5t31 -17.5q-168 -182 -317 -339q-63 -68 -130 -135.5t-128.5 -127t-113.5 -106.5t-87 -72q-16 0 -45 13.5t-57.5 35t-50 49t-21.5 54.5q0 14 14 53q-59 -68 -119.5 -122t-117.5 -83q-74 -4 -115 14.5 t-62.5 47t-26.5 63.5t-5 62zM197 -82q49 33 103 85t108.5 116.5t108.5 136.5t104 139q68 123 142.5 243t139.5 210q-63 -2 -140 -59.5t-156 -146.5t-153.5 -197.5t-132 -212t-92 -187.5t-32.5 -127zM872 1368q14 78 76 132t139 54q39 0 71 -14t53.5 -39.5t30.5 -59.5t3 -73 t-26.5 -72.5t-50 -59.5t-66.5 -40t-76 -14q-78 0 -123 54t-31 132zM965 1370q-6 -39 15 -66.5t60 -27.5t72 27.5t41 66.5q4 39 -18.5 65.5t-61.5 26.5t-70.5 -26.5t-37.5 -65.5z" />
<glyph unicode="&#xe6;" horiz-adv-x="1740" d="M-248 25q0 55 40 146t104.5 197.5t146.5 215t163 197.5t155.5 148.5t125.5 63.5q39 4 84 3t86 -12t75 -33.5t50 -63.5q55 49 103.5 77.5t83.5 28.5q41 0 78.5 -16t67.5 -41t48.5 -55.5t18.5 -59.5q0 -49 -21.5 -108.5t-59.5 -117.5t-90.5 -111.5t-113.5 -91.5t-131.5 -56 t-142.5 -6q-41 -68 -76 -135.5t-61.5 -129t-41 -111.5t-10.5 -81q45 -14 91 1t102.5 61.5t132.5 122t180 182.5q68 70 133.5 137t118.5 121q61 63 117 120q23 16 44 17.5t31 -17.5q-57 -66 -122 -135q-55 -59 -128 -136t-149 -154q-74 -78 -142.5 -153t-137 -131t-141 -89 t-154.5 -23q-59 6 -95 38t-54.5 70t-25 75.5t-6.5 60.5v16q-31 -31 -66.5 -64.5t-72.5 -63t-70.5 -53t-58.5 -38.5q-74 -4 -115 14.5t-62.5 47t-26.5 63.5t-5 62zM-51 -82q98 66 209.5 179.5t210.5 250.5q33 61 70.5 130t74.5 136.5t73 128t68 105.5q-63 -2 -140 -59.5 t-155.5 -146.5t-153.5 -197.5t-132.5 -212t-92 -187.5t-32.5 -127zM664 389q39 25 81.5 64t84.5 88t79 107t62 124q-76 -68 -157 -169t-150 -214z" />
<glyph unicode="&#xe7;" horiz-adv-x="1130" d="M-35 -645l23 70q104 23 170 77q45 37 45 86q0 37 -29 61.5t-70 24.5q-8 0 -18 -2l98 170q-41 6 -74.5 31t-58 55.5t-38 62.5t-13.5 54q0 53 41 144.5t105.5 195.5t145.5 212t162 195t153.5 142t121.5 55q43 0 72.5 -10.5t52.5 -20.5q-16 -20 -26.5 -68t-17.5 -111.5 t-10 -135.5t-3 -139q-47 0 -72 22.5t-34 56t-7 74.5t12 78q-59 -55 -119.5 -130t-117 -156.5t-104.5 -164.5t-83.5 -158t-56 -134.5t-18.5 -91.5q51 0 116.5 30.5t135 80.5t142.5 114.5t140 132.5q158 158 324 360q25 14 48 15.5t27 -15.5q-156 -197 -311 -356 q-66 -68 -137.5 -136.5t-144 -124.5t-141 -97t-130.5 -56l-51 -96q63 -8 94 -42t31 -81q0 -80 -98.5 -162.5t-276.5 -111.5z" />
<glyph unicode="&#xe8;" horiz-adv-x="1206" d="M2 47q0 53 41 145.5t105.5 197t145.5 212t162 194.5t154.5 142t122.5 55q41 0 79 -16t67.5 -41t48 -55.5t18.5 -59.5q0 -49 -21.5 -108.5t-59.5 -117.5t-90 -111.5t-113.5 -91.5t-132 -56.5t-142.5 -5.5q-41 -68 -76 -132.5t-59.5 -122t-38.5 -102.5t-14 -73 q47 0 112.5 30.5t140 80.5t154.5 114.5t156 132.5q178 157 375 360q20 12 39.5 12.5t29.5 -12.5q-193 -217 -375 -389q-78 -74 -161.5 -143.5t-164.5 -123.5t-157 -87t-137 -33q-84 0 -127 21.5t-61.5 53.5t-19.5 66.5t-1 63.5zM428 389q39 25 82 64t85 88t78.5 107 t61.5 124q-76 -68 -156.5 -169t-150.5 -214zM463 1483h248l129 -299h-121z" />
<glyph unicode="&#xe9;" horiz-adv-x="1206" d="M2 47q0 53 41 145.5t105.5 197t145.5 212t162 194.5t154.5 142t122.5 55q41 0 79 -16t67.5 -41t48 -55.5t18.5 -59.5q0 -49 -21.5 -108.5t-59.5 -117.5t-90 -111.5t-113.5 -91.5t-132 -56.5t-142.5 -5.5q-41 -68 -76 -132.5t-59.5 -122t-38.5 -102.5t-14 -73 q47 0 112.5 30.5t140 80.5t154.5 114.5t156 132.5q178 157 375 360q20 12 39.5 12.5t29.5 -12.5q-193 -217 -375 -389q-78 -74 -161.5 -143.5t-164.5 -123.5t-157 -87t-137 -33q-84 0 -127 21.5t-61.5 53.5t-19.5 66.5t-1 63.5zM428 389q39 25 82 64t85 88t78.5 107 t61.5 124q-76 -68 -156.5 -169t-150.5 -214zM643 1182l213 297h248l-340 -297h-121z" />
<glyph unicode="&#xea;" horiz-adv-x="1206" d="M2 47q0 53 41 145.5t105.5 197t145.5 212t162 194.5t154.5 142t122.5 55q41 0 79 -16t67.5 -41t48 -55.5t18.5 -59.5q0 -49 -21.5 -108.5t-59.5 -117.5t-90 -111.5t-113.5 -91.5t-132 -56.5t-142.5 -5.5q-41 -68 -76 -132.5t-59.5 -122t-38.5 -102.5t-14 -73 q47 0 112.5 30.5t140 80.5t154.5 114.5t156 132.5q178 157 375 360q20 12 39.5 12.5t29.5 -12.5q-193 -217 -375 -389q-78 -74 -161.5 -143.5t-164.5 -123.5t-157 -87t-137 -33q-84 0 -127 21.5t-61.5 53.5t-19.5 66.5t-1 63.5zM428 389q39 25 82 64t85 88t78.5 107 t61.5 124q-76 -68 -156.5 -169t-150.5 -214zM535 1182l385 338h182v-338h-70l-65 211l-365 -211h-67z" />
<glyph unicode="&#xeb;" horiz-adv-x="1206" d="M2 47q0 53 41 145.5t105.5 197t145.5 212t162 194.5t154.5 142t122.5 55q41 0 79 -16t67.5 -41t48 -55.5t18.5 -59.5q0 -49 -21.5 -108.5t-59.5 -117.5t-90 -111.5t-113.5 -91.5t-132 -56.5t-142.5 -5.5q-41 -68 -76 -132.5t-59.5 -122t-38.5 -102.5t-14 -73 q47 0 112.5 30.5t140 80.5t154.5 114.5t156 132.5q178 157 375 360q20 12 39.5 12.5t29.5 -12.5q-193 -217 -375 -389q-78 -74 -161.5 -143.5t-164.5 -123.5t-157 -87t-137 -33q-84 0 -127 21.5t-61.5 53.5t-19.5 66.5t-1 63.5zM428 389q39 25 82 64t85 88t78.5 107 t61.5 124q-76 -68 -156.5 -169t-150.5 -214zM539 1292q0 47 31.5 79t78.5 32t79 -32t32 -79t-32 -78.5t-79 -31.5t-78.5 31.5t-31.5 78.5zM872 1292q0 47 32 79t79 32t79 -32t32 -79t-32 -78.5t-79 -31.5t-79 31.5t-32 78.5z" />
<glyph unicode="&#xec;" horiz-adv-x="976" d="M0 -12q0 25 23.5 79t62.5 126.5t89 158.5t104.5 173t106.5 167t96 143.5t74 102.5t40 43q31 12 59.5 10t51 -16t35 -39t8.5 -55q-47 -66 -106.5 -158t-120 -192.5t-119 -201t-103.5 -182t-72.5 -135t-27.5 -61.5q4 0 34.5 28.5t78.5 75.5t107.5 106.5t121.5 123.5 q143 145 325 333q29 16 49.5 13.5t26.5 -13.5q-207 -217 -375 -389q-72 -74 -141.5 -143.5t-124.5 -123.5t-91 -88t-42 -34q-84 0 -127 29t-43 119zM461 1481h248l129 -299h-121z" />
<glyph unicode="&#xed;" horiz-adv-x="976" d="M0 -12q0 25 23.5 79t62.5 126.5t89 158.5t104.5 173t106.5 167t96 143.5t74 102.5t40 43q31 12 59.5 10t51 -16t35 -39t8.5 -55q-47 -66 -106.5 -158t-120 -192.5t-119 -201t-103.5 -182t-72.5 -135t-27.5 -61.5q4 0 34.5 28.5t78.5 75.5t107.5 106.5t121.5 123.5 q143 145 325 333q29 16 49.5 13.5t26.5 -13.5q-207 -217 -375 -389q-72 -74 -141.5 -143.5t-124.5 -123.5t-91 -88t-42 -34q-84 0 -127 29t-43 119zM741 1182l213 297h248l-340 -297h-121z" />
<glyph unicode="&#xee;" horiz-adv-x="976" d="M0 -12q0 25 23.5 79t62.5 126.5t89 158.5t104.5 173t106.5 167t96 143.5t74 102.5t40 43q31 12 59.5 10t51 -16t35 -39t8.5 -55q-47 -66 -106.5 -158t-120 -192.5t-119 -201t-103.5 -182t-72.5 -135t-27.5 -61.5q4 0 34.5 28.5t78.5 75.5t107.5 106.5t121.5 123.5 q143 145 325 333q29 16 49.5 13.5t26.5 -13.5q-207 -217 -375 -389q-72 -74 -141.5 -143.5t-124.5 -123.5t-91 -88t-42 -34q-84 0 -127 29t-43 119zM451 1182l385 338h182v-338h-70l-65 211l-365 -211h-67z" />
<glyph unicode="&#xef;" horiz-adv-x="976" d="M0 -12q0 25 23.5 79t62.5 126.5t89 158.5t104.5 173t106.5 167t96 143.5t74 102.5t40 43q31 12 59.5 10t51 -16t35 -39t8.5 -55q-47 -66 -106.5 -158t-120 -192.5t-119 -201t-103.5 -182t-72.5 -135t-27.5 -61.5q4 0 34.5 28.5t78.5 75.5t107.5 106.5t121.5 123.5 q143 145 325 333q29 16 49.5 13.5t26.5 -13.5q-207 -217 -375 -389q-72 -74 -141.5 -143.5t-124.5 -123.5t-91 -88t-42 -34q-84 0 -127 29t-43 119zM520 1292q0 47 32 79t79 32t78.5 -32t31.5 -79t-31.5 -78.5t-78.5 -31.5t-79 31.5t-32 78.5zM854 1292q0 47 32 79t79 32 t78.5 -32t31.5 -79t-31.5 -78.5t-78.5 -31.5t-79 31.5t-32 78.5z" />
<glyph unicode="&#xf0;" horiz-adv-x="1300" d="M63 330q70 260 281 458q147 143 270 149.5t191 -112.5q33 -59 41 -140t-6 -183q139 213 192 393q55 182 43 354q-4 61 -18 123q-72 -92 -105 -145l-73 55q68 102 151 182q-20 66 -53 133l51 70q39 -72 68 -145q94 76 202 127l2 -86q-109 -61 -176 -121q43 -150 43 -316 q2 -297 -133 -608t-360 -522q-188 -182 -344 -192.5t-238 130.5q-92 170 -29 396zM133 20q39 -76 137.5 -58t259.5 171q101 95 242 275q14 96 12 164.5t-26 109.5q-35 61 -123 43t-246 -170q-188 -178 -254 -338q-49 -117 -2 -197z" />
<glyph unicode="&#xf1;" horiz-adv-x="1409" d="M0 -37q0 29 42 114t105.5 195.5t138 232.5t142.5 225.5t116 172t58 74.5q20 12 50 14t55.5 -10t41 -39t9.5 -72q-86 -129 -175 -271t-161 -261q-84 -141 -164 -275q57 66 135 158t163 190.5t169 197t155.5 177t122 131t66.5 60.5q27 14 54.5 12t48 -17.5t33 -41 t12.5 -60.5q-47 -63 -105.5 -152t-119 -186.5t-118 -194.5t-102.5 -179t-71.5 -138.5t-26.5 -72.5q6 0 38.5 28.5t80 75.5t106.5 107.5t119 124.5q141 147 315 335q27 10 46.5 9.5t29.5 -9.5q-199 -219 -360 -391q-70 -74 -137.5 -144.5t-124 -124.5t-95.5 -88t-51 -34 q-88 0 -132 29t-44 121q0 29 31.5 100.5t83 166.5t115 202.5t124.5 206.5q-113 -135 -278.5 -341t-380.5 -485q-41 -4 -71 7.5t-50.5 31t-29.5 43t-9 45.5zM782 1184q23 98 65 144t96 61.5t112.5 8.5t113 -14.5t99.5 -6.5t69 34q-33 -84 -75.5 -115.5t-93 -37t-103.5 5 t-104.5 12.5t-97.5 -15.5t-81 -76.5z" />
<glyph unicode="&#xf2;" horiz-adv-x="1247" d="M0 82q0 121 40 236.5t102.5 218t137 188.5t144.5 148.5t124 97.5t77 35q68 0 109.5 -31t64 -79t30 -106.5t7.5 -111.5q0 -61 -15.5 -134t-44 -149t-74 -151.5t-102.5 -143.5q47 12 97.5 40t99.5 67t96 84t88 92q98 106 190 235q23 14 47.5 11.5t28.5 -11.5 q-115 -168 -239 -299q-53 -55 -112.5 -109t-122 -97t-126 -70t-125.5 -29q-59 -55 -131 -102t-151 -76q-41 -10 -83 0t-77 41t-57.5 81t-22.5 124zM188 -51q63 39 128 101.5t123.5 138t109.5 160.5t87 172t54.5 173t14.5 160q-33 -27 -83.5 -74t-106.5 -112.5t-114.5 -146.5 t-104.5 -173t-77 -193.5t-31 -205.5zM446 1481h248l129 -299h-121z" />
<glyph unicode="&#xf3;" horiz-adv-x="1247" d="M0 82q0 121 40 236.5t102.5 218t137 188.5t144.5 148.5t124 97.5t77 35q68 0 109.5 -31t64 -79t30 -106.5t7.5 -111.5q0 -61 -15.5 -134t-44 -149t-74 -151.5t-102.5 -143.5q47 12 97.5 40t99.5 67t96 84t88 92q98 106 190 235q23 14 47.5 11.5t28.5 -11.5 q-115 -168 -239 -299q-53 -55 -112.5 -109t-122 -97t-126 -70t-125.5 -29q-59 -55 -131 -102t-151 -76q-41 -10 -83 0t-77 41t-57.5 81t-22.5 124zM188 -51q63 39 128 101.5t123.5 138t109.5 160.5t87 172t54.5 173t14.5 160q-33 -27 -83.5 -74t-106.5 -112.5t-114.5 -146.5 t-104.5 -173t-77 -193.5t-31 -205.5zM655 1182l213 297h248l-340 -297h-121z" />
<glyph unicode="&#xf4;" horiz-adv-x="1247" d="M0 82q0 121 40 236.5t102.5 218t137 188.5t144.5 148.5t124 97.5t77 35q68 0 109.5 -31t64 -79t30 -106.5t7.5 -111.5q0 -61 -15.5 -134t-44 -149t-74 -151.5t-102.5 -143.5q47 12 97.5 40t99.5 67t96 84t88 92q98 106 190 235q23 14 47.5 11.5t28.5 -11.5 q-115 -168 -239 -299q-53 -55 -112.5 -109t-122 -97t-126 -70t-125.5 -29q-59 -55 -131 -102t-151 -76q-41 -10 -83 0t-77 41t-57.5 81t-22.5 124zM188 -51q63 39 128 101.5t123.5 138t109.5 160.5t87 172t54.5 173t14.5 160q-33 -27 -83.5 -74t-106.5 -112.5t-114.5 -146.5 t-104.5 -173t-77 -193.5t-31 -205.5zM502 1182l385 338h182v-338h-70l-65 211l-365 -211h-67z" />
<glyph unicode="&#xf5;" horiz-adv-x="1247" d="M0 82q0 121 40 236.5t102.5 218t137 188.5t144.5 148.5t124 97.5t77 35q68 0 109.5 -31t64 -79t30 -106.5t7.5 -111.5q0 -61 -15.5 -134t-44 -149t-74 -151.5t-102.5 -143.5q47 12 97.5 40t99.5 67t96 84t88 92q98 106 190 235q23 14 47.5 11.5t28.5 -11.5 q-115 -168 -239 -299q-53 -55 -112.5 -109t-122 -97t-126 -70t-125.5 -29q-59 -55 -131 -102t-151 -76q-41 -10 -83 0t-77 41t-57.5 81t-22.5 124zM188 -51q63 39 128 101.5t123.5 138t109.5 160.5t87 172t54.5 173t14.5 160q-33 -27 -83.5 -74t-106.5 -112.5t-114.5 -146.5 t-104.5 -173t-77 -193.5t-31 -205.5zM504 1180q23 98 64.5 144t96 60.5t113 8t112.5 -13.5t99 -6t70 34q-33 -84 -76 -115.5t-93 -37t-103.5 5t-104.5 12.5t-97 -15.5t-81 -76.5z" />
<glyph unicode="&#xf6;" horiz-adv-x="1247" d="M0 82q0 121 40 236.5t102.5 218t137 188.5t144.5 148.5t124 97.5t77 35q68 0 109.5 -31t64 -79t30 -106.5t7.5 -111.5q0 -61 -15.5 -134t-44 -149t-74 -151.5t-102.5 -143.5q47 12 97.5 40t99.5 67t96 84t88 92q98 106 190 235q23 14 47.5 11.5t28.5 -11.5 q-115 -168 -239 -299q-53 -55 -112.5 -109t-122 -97t-126 -70t-125.5 -29q-59 -55 -131 -102t-151 -76q-41 -10 -83 0t-77 41t-57.5 81t-22.5 124zM188 -51q63 39 128 101.5t123.5 138t109.5 160.5t87 172t54.5 173t14.5 160q-33 -27 -83.5 -74t-106.5 -112.5t-114.5 -146.5 t-104.5 -173t-77 -193.5t-31 -205.5zM510 1292q0 47 31.5 79t79.5 32q47 0 78.5 -32t31.5 -79t-31.5 -78.5t-78.5 -31.5t-79 31.5t-32 78.5zM844 1292q0 47 31.5 79t78.5 32t79 -32t32 -79t-32 -78.5t-79 -31.5t-78.5 31.5t-31.5 78.5z" />
<glyph unicode="&#xf7;" horiz-adv-x="1482" d="M0 569l102 176h1381l-103 -176h-1380zM325.5 109q-16.5 41 18.5 98q31 57 95.5 98t121.5 41t74.5 -41t-14.5 -98q-33 -57 -98.5 -98t-125.5 -41q-55 0 -71.5 41zM849.5 1009q-15.5 40 14.5 97q35 59 100.5 100t120.5 41q57 0 75 -41t-17 -100q-31 -55 -96.5 -96 t-124.5 -41q-57 0 -72.5 40z" />
<glyph unicode="&#xf8;" horiz-adv-x="808" d="M-170 -254l98 154q-47 143 -29.5 276t71 248t129 210t148 163.5t129 108.5t68.5 44t26.5 12.5t34 13.5t44 6t57.5 -9l84 131h154l-160 -250q14 -41 18.5 -87t4.5 -89q0 -35 -14.5 -101.5t-42 -143.5t-66.5 -156.5t-88 -143.5q-39 -51 -85 -97t-93.5 -84t-94.5 -66.5 t-86 -43.5q-18 -4 -49 -7t-49 1l-55 -90h-154zM90 158l381 602q-57 -37 -118.5 -93.5t-115 -131t-93.5 -169.5t-54 -208zM162 27q68 45 131 109.5t114.5 142t87.5 167t50 185.5z" />
<glyph unicode="&#xf9;" horiz-adv-x="1456" d="M0 -10q0 16 23.5 67.5t62.5 124t89 158.5t103.5 174t106.5 171t97 148.5t76 105.5t42 44q33 12 64.5 10t55 -14t35 -35.5t-0.5 -56.5q-55 -74 -121 -171.5t-130.5 -201.5t-124 -204.5t-101 -180.5t-63 -129t-11.5 -49q12 0 55 44t105.5 114.5t138.5 163t154.5 187.5 t154.5 188t137.5 166t102.5 119t51 50q31 12 59.5 9t51 -16t32.5 -39t4 -58q-66 -84 -130 -183.5t-124.5 -200t-113 -195.5t-91 -170t-61 -123t-22.5 -56q2 0 32.5 28.5t78.5 75.5t108.5 106.5t122.5 123.5q145 145 331 333q14 12 44 14.5t32 -14.5q-213 -217 -383 -389 q-72 -74 -141.5 -143.5t-124.5 -123.5t-91 -88t-38 -34q-80 0 -127 29t-47 121q0 18 15.5 58t41 95.5t60 121t75.5 136.5q-84 -104 -169 -204.5t-157.5 -180t-126 -128t-73.5 -48.5q-27 0 -56.5 5t-55 21.5t-42 46.5t-16.5 77zM776 1483h248l129 -299h-121z" />
<glyph unicode="&#xfa;" horiz-adv-x="1456" d="M0 -10q0 16 23.5 67.5t62.5 124t89 158.5t103.5 174t106.5 171t97 148.5t76 105.5t42 44q33 12 64.5 10t55 -14t35 -35.5t-0.5 -56.5q-55 -74 -121 -171.5t-130.5 -201.5t-124 -204.5t-101 -180.5t-63 -129t-11.5 -49q12 0 55 44t105.5 114.5t138.5 163t154.5 187.5 t154.5 188t137.5 166t102.5 119t51 50q31 12 59.5 9t51 -16t32.5 -39t4 -58q-66 -84 -130 -183.5t-124.5 -200t-113 -195.5t-91 -170t-61 -123t-22.5 -56q2 0 32.5 28.5t78.5 75.5t108.5 106.5t122.5 123.5q145 145 331 333q14 12 44 14.5t32 -14.5q-213 -217 -383 -389 q-72 -74 -141.5 -143.5t-124.5 -123.5t-91 -88t-38 -34q-80 0 -127 29t-47 121q0 18 15.5 58t41 95.5t60 121t75.5 136.5q-84 -104 -169 -204.5t-157.5 -180t-126 -128t-73.5 -48.5q-27 0 -56.5 5t-55 21.5t-42 46.5t-16.5 77zM821 1182l213 297h248l-340 -297h-121z" />
<glyph unicode="&#xfb;" horiz-adv-x="1456" d="M0 -10q0 16 23.5 67.5t62.5 124t89 158.5t103.5 174t106.5 171t97 148.5t76 105.5t42 44q33 12 64.5 10t55 -14t35 -35.5t-0.5 -56.5q-55 -74 -121 -171.5t-130.5 -201.5t-124 -204.5t-101 -180.5t-63 -129t-11.5 -49q12 0 55 44t105.5 114.5t138.5 163t154.5 187.5 t154.5 188t137.5 166t102.5 119t51 50q31 12 59.5 9t51 -16t32.5 -39t4 -58q-66 -84 -130 -183.5t-124.5 -200t-113 -195.5t-91 -170t-61 -123t-22.5 -56q2 0 32.5 28.5t78.5 75.5t108.5 106.5t122.5 123.5q145 145 331 333q14 12 44 14.5t32 -14.5q-213 -217 -383 -389 q-72 -74 -141.5 -143.5t-124.5 -123.5t-91 -88t-38 -34q-80 0 -127 29t-47 121q0 18 15.5 58t41 95.5t60 121t75.5 136.5q-84 -104 -169 -204.5t-157.5 -180t-126 -128t-73.5 -48.5q-27 0 -56.5 5t-55 21.5t-42 46.5t-16.5 77zM676 1182l385 338h182v-338h-69l-66 211 l-365 -211h-67z" />
<glyph unicode="&#xfc;" horiz-adv-x="1456" d="M0 -10q0 16 23.5 67.5t62.5 124t89 158.5t103.5 174t106.5 171t97 148.5t76 105.5t42 44q33 12 64.5 10t55 -14t35 -35.5t-0.5 -56.5q-55 -74 -121 -171.5t-130.5 -201.5t-124 -204.5t-101 -180.5t-63 -129t-11.5 -49q12 0 55 44t105.5 114.5t138.5 163t154.5 187.5 t154.5 188t137.5 166t102.5 119t51 50q31 12 59.5 9t51 -16t32.5 -39t4 -58q-66 -84 -130 -183.5t-124.5 -200t-113 -195.5t-91 -170t-61 -123t-22.5 -56q2 0 32.5 28.5t78.5 75.5t108.5 106.5t122.5 123.5q145 145 331 333q14 12 44 14.5t32 -14.5q-213 -217 -383 -389 q-72 -74 -141.5 -143.5t-124.5 -123.5t-91 -88t-38 -34q-80 0 -127 29t-47 121q0 18 15.5 58t41 95.5t60 121t75.5 136.5q-84 -104 -169 -204.5t-157.5 -180t-126 -128t-73.5 -48.5q-27 0 -56.5 5t-55 21.5t-42 46.5t-16.5 77zM711 1292q0 47 31.5 79t78.5 32t79 -32t32 -79 t-32 -78.5t-79 -31.5t-78.5 31.5t-31.5 78.5zM1044 1292q0 47 32 79t79 32t79 -32t32 -79t-32 -78.5t-79 -31.5t-79 31.5t-32 78.5z" />
<glyph unicode="&#xfd;" horiz-adv-x="1640" d="M0 -555q0 41 36 72.5t98.5 62.5t149.5 63.5t189 75.5q63 86 137 202t147.5 241t143.5 247.5t125 219.5q-63 -82 -136 -173t-145.5 -182.5t-143.5 -175.5t-129 -148.5t-100 -102t-61 -37.5q-45 0 -78.5 18t-55 43t-32 50.5t-10.5 41.5q0 25 42 108t106.5 194.5 t140.5 235.5t143.5 229.5t116.5 176t59 76.5q27 14 57.5 13t56.5 -15t41 -40t13 -58q-63 -94 -130.5 -201t-133 -214.5t-123 -205.5t-99.5 -174t-64.5 -121t-16.5 -45t46 46t101.5 120t139.5 169t159.5 195.5t161.5 195.5t146.5 169t112.5 120t61 46q39 14 68.5 7t51 -25.5 t33 -43t11.5 -40.5q-53 -66 -125 -177.5t-155 -249t-176 -287t-189 -290.5q80 47 183 132t210.5 187.5t208 213t174.5 208.5q33 20 50 15.5t23 -15.5q-90 -133 -210.5 -266t-248.5 -248.5t-253 -206t-221 -139.5q-72 -98 -142.5 -184t-137.5 -149.5t-128 -99.5t-117 -36 q-53 0 -88 18.5t-55.5 43t-28.5 51.5t-10 43zM74.5 -556.5q-13.5 -21.5 27.5 -21.5q61 0 134 53.5t151 143.5q-68 -25 -136.5 -58.5t-115.5 -64.5t-60.5 -52.5zM1063 1182l213 297h248l-340 -297h-121z" />
<glyph unicode="&#xfe;" horiz-adv-x="1402" d="M0 -285l1092 1715q80 47 137 27.5t71 -81.5l-411 -647q43 45 92 92t94 86t82 64.5t55 25.5q29 0 63 -16t62.5 -41t47 -50.5t18.5 -43.5q0 -25 -20.5 -84.5t-57.5 -138t-87 -171t-108.5 -184.5t-123 -175t-127.5 -144q-117 -88 -209 -105.5t-151.5 2t-83 61.5t-5.5 73 q80 0 157 39.5t147.5 105t134 149.5t117.5 172.5t97 172t72 149.5t42 105.5t9 39.5t-35.5 -28.5t-79 -75.5t-106.5 -106.5t-118.5 -121t-116 -120t-97.5 -101.5l-444 -698q-72 -43 -129 -23.5t-80 76.5z" />
<glyph unicode="&#xff;" horiz-adv-x="1640" d="M0 -555q0 41 36 72.5t98.5 62.5t149.5 63.5t189 75.5q63 86 137 202t147.5 241t143.5 247.5t125 219.5q-63 -82 -136 -173t-145.5 -182.5t-143.5 -175.5t-129 -148.5t-100 -102t-61 -37.5q-45 0 -78.5 18t-55 43t-32 50.5t-10.5 41.5q0 25 42 108t106.5 194.5 t140.5 235.5t143.5 229.5t116.5 176t59 76.5q27 14 57.5 13t56.5 -15t41 -40t13 -58q-63 -94 -130.5 -201t-133 -214.5t-123 -205.5t-99.5 -174t-64.5 -121t-16.5 -45t46 46t101.5 120t139.5 169t159.5 195.5t161.5 195.5t146.5 169t112.5 120t61 46q39 14 68.5 7t51 -25.5 t33 -43t11.5 -40.5q-53 -66 -125 -177.5t-155 -249t-176 -287t-189 -290.5q80 47 183 132t210.5 187.5t208 213t174.5 208.5q33 20 50 15.5t23 -15.5q-90 -133 -210.5 -266t-248.5 -248.5t-253 -206t-221 -139.5q-72 -98 -142.5 -184t-137.5 -149.5t-128 -99.5t-117 -36 q-53 0 -88 18.5t-55.5 43t-28.5 51.5t-10 43zM74.5 -556.5q-13.5 -21.5 27.5 -21.5q61 0 134 53.5t151 143.5q-68 -25 -136.5 -58.5t-115.5 -64.5t-60.5 -52.5zM938 1176q0 47 31.5 78.5t79.5 31.5q47 0 78.5 -31.5t31.5 -78.5t-31.5 -79t-78.5 -32t-79 32t-32 79z M1272 1176q0 47 31.5 78.5t78.5 31.5t79 -31.5t32 -78.5t-31.5 -79t-79.5 -32q-47 0 -78.5 32t-31.5 79z" />
<glyph unicode="&#x152;" horiz-adv-x="2832" d="M92 195q0 123 41 262t110.5 282.5t162 284.5t196 271t212 241t209.5 192.5t190.5 128t152.5 46.5q29 0 72 -20.5t73 -49.5q70 -74 99 -170q70 61 159 111.5t187 84t200.5 50t200 13.5t182.5 -26.5t148 -72.5q-10 -6 -35.5 -37t-57.5 -78t-66 -105.5t-61.5 -118 t-43 -115.5t-8.5 -99q-82 45 -103.5 105.5t-6.5 127t58 134t93 122.5q-147 -33 -300 -93t-279 -138t-207 -168t-83 -182q45 -53 111.5 -80t140.5 -36t144.5 -7t123.5 8q20 -10 33.5 -31.5t17 -47.5t-6 -52.5t-33.5 -46.5q-121 -47 -254 -111.5t-262 -141.5t-246 -161 t-206 -167t-142.5 -163t-53.5 -147q45 -14 109.5 -9t141.5 26.5t159 54t162 73.5t152.5 85t129.5 87q27 6 48.5 -13t31.5 -51t5 -69t-31 -65q-74 -61 -173.5 -111.5t-205 -86.5t-207.5 -55.5t-180 -19.5q-23 0 -53.5 8.5t-62.5 25.5t-62.5 45t-55.5 67q-104 -66 -207.5 -106 t-210.5 -40q-68 0 -131 22.5t-112 67.5t-79 112t-30 153zM304.5 197.5q-23.5 -119.5 5 -192.5t124.5 -73q94 0 192.5 39t196.5 105q-12 45 -12 104q0 96 68.5 193.5t174 186.5t232.5 166t241.5 133t202 90t115.5 36q-113 16 -200 59q-37 18 -73 45t-63.5 64t-45 84 t-17.5 106q0 70 27.5 134.5t74.5 121.5q-16 49 -41.5 97.5t-60.5 83.5q-94 -31 -209 -127.5t-233.5 -231.5t-234.5 -299t-211 -328.5t-162.5 -320.5t-91 -275.5z" />
<glyph unicode="&#x153;" horiz-adv-x="1562" d="M223 74q0 139 39 263t100.5 227.5t136 185t148.5 139t136.5 87.5t99.5 30q82 0 126 -43t62 -107q66 61 122 99t97 38t79 -16t67.5 -41t48 -55.5t18.5 -59.5q0 -49 -21.5 -108.5t-59.5 -117.5t-90 -111.5t-113.5 -91.5t-131 -56t-143.5 -6q-41 -68 -75.5 -135.5 t-61.5 -129t-41 -111.5t-10 -81q45 -14 91 1t102.5 61.5t132 122t180.5 182.5q68 70 133 137t118 121q61 63 117 120q23 16 44.5 17.5t31.5 -17.5q-57 -66 -123 -135q-55 -59 -128 -136t-148 -154q-74 -78 -142.5 -153t-137.5 -131t-141.5 -89t-154.5 -23q-53 6 -86 29.5 t-53 56.5q-27 -16 -50.5 -28.5t-43.5 -18.5q-41 -12 -88.5 -4t-89 38t-69.5 80t-28 124zM446 -51q51 33 105 80v12q0 27 13.5 66.5t36 88t52 102.5t62.5 108q53 84 113.5 167.5t125.5 157.5q13 60 9 123q-43 -25 -101.5 -73t-121 -112.5t-122 -145.5t-102.5 -173 t-63.5 -193.5t-6.5 -207.5zM985 389q39 25 82 64t85 88t78.5 107t61.5 124q-76 -68 -156.5 -169t-150.5 -214z" />
<glyph unicode="&#x178;" horiz-adv-x="2158" d="M461 1745q0 37 13 76t40 63q166 16 339 20.5t333 4.5q55 0 101 -19.5t80 -53.5t53.5 -77t19.5 -92q-129 -182 -245 -354t-206 -328t-150.5 -293t-78.5 -254q43 6 118.5 73t169 171t199 235.5t207.5 268.5q242 319 520 723q33 0 67 -13.5t59.5 -31t42 -36t16.5 -26.5 q-63 -104 -138 -244.5t-157 -298t-170 -323.5t-177.5 -323.5t-178.5 -298t-174 -245t-164.5 -166t-149.5 -61.5q-27 0 -57.5 10.5t-57 32t-44 53t-17.5 74.5q63 0 144 63.5t172 170t187.5 246t189.5 293t182 310t163 296.5q-76 -113 -160 -234t-172 -236.5t-176 -220 t-169 -182.5t-153.5 -124t-129.5 -46q-45 8 -80 33q-29 23 -53.5 65.5t-24.5 120.5q0 84 46 199t116.5 238.5t154.5 247.5t161 227.5t135.5 177.5t76.5 98q-74 0 -174 -9t-206.5 -24.5t-208 -36t-177.5 -43.5q-29 6 -43 36t-14 67zM1438 2052q0 47 31.5 79t78.5 32t79 -32 t32 -79t-32 -78.5t-79 -31.5t-78.5 31.5t-31.5 78.5zM1772 2052q0 47 31.5 79t78.5 32t79 -32t32 -79t-32 -78.5t-79 -31.5t-78.5 31.5t-31.5 78.5z" />
<glyph unicode="&#x2c6;" horiz-adv-x="567" d="M0 1092l385 338h182v-338h-69l-66 211l-364 -211h-68z" />
<glyph unicode="&#x2dc;" horiz-adv-x="555" d="M0 1061q23 98 64.5 144t96 60.5t113 8.5t112.5 -13.5t99 -6.5t70 34q-33 -84 -76 -115.5t-93 -37t-103.5 5t-104.5 12.5t-97 -15.5t-81 -76.5z" />
<glyph unicode="&#x2000;" horiz-adv-x="1187" />
<glyph unicode="&#x2001;" horiz-adv-x="2374" />
<glyph unicode="&#x2002;" horiz-adv-x="1187" />
<glyph unicode="&#x2003;" horiz-adv-x="2374" />
<glyph unicode="&#x2004;" horiz-adv-x="791" />
<glyph unicode="&#x2005;" horiz-adv-x="593" />
<glyph unicode="&#x2006;" horiz-adv-x="395" />
<glyph unicode="&#x2007;" horiz-adv-x="395" />
<glyph unicode="&#x2008;" horiz-adv-x="296" />
<glyph unicode="&#x2009;" horiz-adv-x="474" />
<glyph unicode="&#x200a;" horiz-adv-x="131" />
<glyph unicode="&#x2010;" horiz-adv-x="1228" d="M387 727l64 231h923l-63 -231h-924z" />
<glyph unicode="&#x2011;" horiz-adv-x="1228" d="M387 727l64 231h923l-63 -231h-924z" />
<glyph unicode="&#x2012;" horiz-adv-x="1228" d="M387 727l64 231h923l-63 -231h-924z" />
<glyph unicode="&#x2013;" horiz-adv-x="1374" d="M0 727l63 231h1311l-63 -231h-1311z" />
<glyph unicode="&#x2014;" horiz-adv-x="2111" d="M0 727l74 264h2037l-71 -264h-2040z" />
<glyph unicode="&#x2018;" horiz-adv-x="342" d="M0 1573q0 39 27 72q57 72 139 117.5t162 66.5q12 -2 13 -11.5t-7 -15.5q-121 -41 -182 -127q31 -12 50 -39.5t19 -62.5q0 -47 -31.5 -79t-78.5 -32t-79 32t-32 79z" />
<glyph unicode="&#x2019;" horiz-adv-x="342" d="M1 1473.5q-1 9.5 7 15.5q121 41 182 127q-31 12 -50 39.5t-19 62.5q0 47 31.5 79t78.5 32t79 -32t32 -79q0 -38 -27 -71q-57 -72 -139 -118t-162 -67q-12 2 -13 11.5z" />
<glyph unicode="&#x201a;" horiz-adv-x="342" d="M1 -331q-1 9 7 16q121 41 182 127q-31 12 -50 39.5t-19 62.5q0 47 31.5 79t78.5 32t79 -32t32 -79q0 -39 -27 -72q-57 -72 -139 -118t-162 -66q-12 2 -13 11z" />
<glyph unicode="&#x201c;" horiz-adv-x="645" d="M0 1571q0 38 27 71q57 72 139 118t162 67q12 -2 13 -11.5t-7 -15.5q-121 -41 -182 -127q31 -12 50 -39.5t19 -62.5q0 -47 -31.5 -79t-78.5 -32t-79 32t-32 79zM303 1571q0 38 27 71q57 72 139 118t162 67q12 -2 13 -11.5t-7 -15.5q-121 -41 -182 -127q31 -12 50 -39.5 t19 -62.5q0 -47 -31.5 -79t-78.5 -32t-79 32t-32 79z" />
<glyph unicode="&#x201d;" horiz-adv-x="645" d="M1 1471.5q-1 9.5 7 15.5q121 41 182 127q-31 12 -50 39.5t-19 62.5q0 47 31.5 79t78.5 32t79 -32t32 -79q0 -38 -27 -71q-57 -72 -139 -118t-162 -67q-12 2 -13 11.5zM304 1471.5q-1 9.5 7 15.5q121 41 183 127q-31 12 -50.5 39.5t-19.5 62.5q0 47 31.5 79t79.5 32 q47 0 78.5 -32t31.5 -79q0 -38 -27 -71q-57 -72 -139 -118t-162 -67q-12 2 -13 11.5z" />
<glyph unicode="&#x201e;" horiz-adv-x="645" d="M1 -331q-1 9 7 16q121 41 182 127q-31 12 -50 39.5t-19 62.5q0 47 31.5 79t78.5 32t79 -32t32 -79q0 -39 -27 -72q-57 -72 -139 -118t-162 -66q-12 2 -13 11zM304 -331q-1 9 7 16q121 41 183 127q-31 12 -50.5 39.5t-19.5 62.5q0 47 31.5 79t79.5 32q47 0 78.5 -32 t31.5 -79q0 -39 -27 -72q-57 -72 -139 -118t-162 -66q-12 2 -13 11z" />
<glyph unicode="&#x2022;" horiz-adv-x="552" d="M0 659q0 57 21.5 107.5t59.5 88.5t88 59.5t107 21.5t107.5 -21.5t88.5 -59.5t59.5 -88t21.5 -108q0 -57 -21.5 -107t-59.5 -88t-88 -59.5t-108 -21.5q-57 0 -107 21.5t-88 59.5t-59.5 88t-21.5 107z" />
<glyph unicode="&#x2026;" horiz-adv-x="884" d="M0 -47q0 47 31.5 78.5t79.5 31.5q47 0 78.5 -31.5t31.5 -78.5t-31.5 -79t-78.5 -32t-79 32t-32 79zM334 -47q0 47 31.5 78.5t78.5 31.5t79 -31.5t32 -78.5t-31.5 -79t-79.5 -32q-47 0 -78.5 32t-31.5 79zM664 -47q0 47 31.5 78.5t78.5 31.5t79 -31.5t32 -78.5t-32 -79 t-79 -32t-78.5 32t-31.5 79z" />
<glyph unicode="&#x202f;" horiz-adv-x="474" />
<glyph unicode="&#x2039;" horiz-adv-x="1019" d="M1 598q3 23 15.5 44.5t31 40.5t36.5 32l917 319q14 -6 17.5 -25.5t-8 -47t-35 -56t-60.5 -53.5l-639 -215l594 -295q8 -12 13.5 -34.5t-2 -48.5t-30 -51.5t-65.5 -45.5l-772 399q-16 14 -13 37z" />
<glyph unicode="&#x203a;" horiz-adv-x="1019" d="M0 187.5q-2 19.5 9 47t35 56t60 53.5l639 215l-593 295q-10 12 -14.5 34.5t2.5 48.5t29.5 51.5t65.5 45.5l773 -399q14 -16 12 -38t-14.5 -43.5t-31 -40.5t-36.5 -32l-918 -319q-16 6 -18 25.5z" />
<glyph unicode="&#x205f;" horiz-adv-x="593" />
<glyph unicode="&#x20ac;" horiz-adv-x="1796" d="M0 633l80 86h158q23 47 77 137h-200l78 88h178q248 360 553 583.5t514 223.5q219 0 358 -86q-162 -223 -248 -422h-73q27 61 41 100q66 174 42 249t-147 75q-166 0 -394.5 -194.5t-430.5 -528.5h479l-78 -88h-450q-25 -45 -72 -137h487l-80 -86h-446q-14 -33 -45 -113 q-90 -240 -43 -384t211 -144q156 0 334 125q25 16 26 16q16 0 25.5 -13.5t3.5 -27.5q-16 -41 -178 -129t-330 -88q-229 0 -312 172t23 457q18 45 56 129h-197z" />
<glyph unicode="&#x2122;" horiz-adv-x="1536" d="M0 1278l18 27q53 6 78 23.5t58 84.5l243 473h-61q-78 0 -124 -26.5t-91 -92.5h-29l105 166h594l-72 -166h-27q23 61 3.5 90t-99.5 29h-61l-244 -473q-35 -68 -29 -86t57 -22l-16 -27h-303zM520 1278l19 27q45 0 64.5 9t35.5 26.5t43 72.5l199 381q31 59 32.5 75.5 t-10.5 25t-57 8.5l16 30h234l-21 -465l459 465h227l-18 -30q-45 -2 -64.5 -9.5t-35 -25t-48.5 -74.5l-196 -381q-35 -70 -28 -87t65 -21l-17 -27h-325l16 27q47 0 68.5 9t38 26.5t45.5 70.5l206 399l-528 -532h-25l25 528l-205 -393q-25 -55 -26 -67q-6 -23 5 -32t44 -9h30 l-18 -27h-250z" />
<glyph unicode="&#x25fc;" horiz-adv-x="993" d="M0 0v993h993v-993h-993z" />
<glyph unicode="&#xfb01;" horiz-adv-x="1798" d="M-395 -610q12 39 58 66.5t114 27.5q33 0 108 -6q63 -6 88 -6q168 0 250 59q113 78 248 305l680 1116h-326l58 97h323q256 422 590 657q281 199 563 199q150 0 215 -50q43 -33 21 -96q-12 -39 -53 -67.5t-88 -28.5q-31 0 -58 6q-14 4 -90 43q-94 47 -180 47 q-90 0 -187.5 -52t-205 -180t-326.5 -478h225q76 0 137 10q47 8 138 37q127 43 178 43q31 0 44 -21.5t1 -52.5q-12 -35 -121 -205l-315 -489q-100 -160 -121 -213q-6 -23 0 -37.5t16 -14.5q47 0 287 170l29 -49q-221 -154 -260 -176q-106 -63 -175 -88q-37 -14 -63 -14 q-51 0 -70.5 35.5t2.5 103.5q20 57 75.5 155.5t271.5 420.5q170 260 172 268q12 35 -19 35q-16 0 -41 -4q-76 -10 -223 -11h-225l-531 -866q-180 -293 -353 -459t-368.5 -257t-361.5 -91q-82 0 -115 33t-16 78z" />
<glyph unicode="&#xfb02;" horiz-adv-x="3000" d="M-338 -614q16 43 55 68.5t95 25.5q27 0 67 -6q106 -14 180 -15q139 0 223.5 60.5t213.5 273.5l688 1151h-326l64 98h319l119 199q178 297 456.5 482.5t512.5 185.5q115 0 150.5 -31t21.5 -76q-8 -20 -37 -57q158 94 262 129t196 35q76 0 101.5 -27t9.5 -72 q-16 -43 -57 -70.5t-103 -27.5q-41 0 -110 12q-76 12 -111 13q-70 0 -129 -47.5t-147 -190.5l-686 -1175q-90 -150 -103 -187q-14 -43 23 -43q27 0 76 25q117 63 301 188l32 -49q-233 -170 -409 -256q-115 -57 -180 -57q-51 0 -69 30.5t5 94.5q29 82 199 368l430 736 q150 254 237.5 359t200.5 187q-29 -8 -54.5 -13t-41.5 -5q-37 0 -86 12q-125 29 -178 29q-117 0 -207 -74q-127 -104 -264 -338l-164 -289h344l-58 -98h-344l-368 -627q-209 -356 -340 -520q-213 -260 -441.5 -394t-427.5 -134q-92 0 -124.5 33.5t-16.5 83.5z" />
</font>
</defs>
</svg>
